<?xml version="1.0" encoding="UTF-8" standalone="no"?>
<svg
   xmlns:dc="http://purl.org/dc/elements/1.1/"
   xmlns:cc="http://creativecommons.org/ns#"
   xmlns:rdf="http://www.w3.org/1999/02/22-rdf-syntax-ns#"
   xmlns:svg="http://www.w3.org/2000/svg"
   xmlns="http://www.w3.org/2000/svg"
   xml:space="preserve"
   style="enable-background:new 0 0 240 234;"
   viewBox="0 0 240 234"
   y="0px"
   x="0px"
   id="Layer_1"
   version="1.1"><metadata
   id="metadata21"><rdf:RDF><cc:Work
       rdf:about=""><dc:format>image/svg+xml</dc:format><dc:type
         rdf:resource="http://purl.org/dc/dcmitype/StillImage" /><dc:title></dc:title></cc:Work></rdf:RDF></metadata><defs
   id="defs19">
	
	

		
	
		
	
			
			
		
			
		
				
			</defs>
<style
   id="style2"
   type="text/css">
	.st0{fill:#470137;}
	.st1{fill:#FF61F6;}
</style>
<path
   id="path4"
   d="M 42.5 0 C 19 0 0 19 0 42.5 L 0 191.5 C 0 215 19 234 42.5 234 L 197.5 234 C 221 234 240 215 240 191.5 L 240 42.5 C 240 19 221 0 197.5 0 L 42.5 0 z M 183.19922 51.300781 L 203.5 51.300781 C 204 51.200781 204.4 51.6 204.5 52 L 204.5 52.199219 L 204.5 147.40039 C 204.5 149.20039 204.59922 151.20039 204.69922 153.40039 C 204.89922 155.50039 204.99961 157.49922 205.09961 159.19922 C 205.09961 159.89922 204.79961 160.50078 204.09961 160.80078 C 198.89961 163.00078 193.40078 164.59961 187.80078 165.59961 C 182.70078 166.49961 177.60039 167 172.40039 167 C 165.00039 167.1 157.60039 165.6 150.90039 162.5 C 144.60039 159.6 139.40078 154.80039 135.80078 148.90039 C 132.10078 142.80039 130.30078 135.19961 130.30078 126.09961 C 130.20078 118.69961 132.10078 111.4 135.80078 105 C 139.60078 98.5 145.09922 93.1 151.69922 89.5 C 158.69922 85.6 167.1 83.699219 177 83.699219 C 177.5 83.699219 178.19961 83.700781 179.09961 83.800781 C 179.99961 83.900781 180.99922 83.9 182.19922 84 L 182.19922 52.400391 C 182.19922 51.700391 182.49922 51.300781 183.19922 51.300781 z M 36.800781 60 L 59.5 60 C 60 60 60.500391 60.099219 60.900391 60.199219 C 61.300391 60.399219 61.600391 60.699609 61.900391 61.099609 C 63.800391 65.399609 66.000781 69.7 68.300781 74 C 70.700781 78.3 73 82.499219 75.5 86.699219 C 77.9 90.899219 80.099219 95.100391 82.199219 99.400391 L 82.400391 99.400391 C 84.500391 95.000391 86.700391 90.7 88.900391 86.5 C 91.100391 82.3 93.399219 78.100391 95.699219 73.900391 C 97.999219 69.700391 100.20039 65.400781 102.40039 61.300781 C 102.50039 60.900781 102.7 60.500781 103 60.300781 C 103.4 60.100781 103.80078 59.999609 104.30078 60.099609 L 125.40039 60.099609 C 125.90039 59.999609 126.4 60.300781 126.5 60.800781 C 126.6 60.900781 126.39922 61.3 126.19922 61.5 L 96.199219 111 L 128.19922 163.5 C 128.39922 163.9 128.50039 164.29922 128.40039 164.69922 C 128.30039 165.09922 127.90078 164.80039 127.30078 164.90039 L 104.40039 164.90039 C 102.80039 164.90039 101.7 164.80078 101 163.80078 C 98.9 159.60078 96.699609 155.50078 94.599609 151.30078 C 92.499609 147.20078 90.200781 142.99922 87.800781 138.69922 C 85.400781 134.39922 82.999609 130.09922 80.599609 125.69922 L 80.400391 125.69922 C 78.300391 129.99922 75.999219 134.29961 73.699219 138.59961 C 71.399219 142.89961 69.100391 147.20039 66.900391 151.40039 C 64.600391 155.60039 62.3 159.9 60 164 C 59.6 165 58.799219 165.09961 57.699219 165.09961 L 35.699219 165.09961 C 35.299219 165.09961 35 165.30078 35 164.80078 C 34.9 164.40078 34.999219 163.99922 35.199219 163.69922 L 66.300781 112.69922 L 36 61.400391 C 35.7 61.000391 35.600781 60.600391 35.800781 60.400391 C 36.000781 60.100391 36.400781 60 36.800781 60 z M 176.19922 102.30078 C 172.29922 102.30078 168.40039 103.10039 164.90039 104.90039 C 161.50039 106.60039 158.60039 109.10078 156.40039 112.30078 C 154.20039 115.50078 153.09961 119.8 153.09961 125 C 152.99961 128.5 153.60078 132.00078 154.80078 135.30078 C 155.80078 138.00078 157.30078 140.40039 159.30078 142.40039 C 161.20078 144.20039 163.49961 145.60039 166.09961 146.40039 C 168.79961 147.30039 171.60039 147.69922 174.40039 147.69922 C 175.90039 147.69922 177.29961 147.6 178.59961 147.5 C 179.89961 147.6 180.99922 147.4 182.19922 147 L 182.19922 103 C 181.29922 102.8 180.4 102.6 179.5 102.5 C 178.4 102.4 177.29922 102.30078 176.19922 102.30078 z "
   style="fill:#225222;fill-opacity:1" />
</svg>