<?xml version="1.0" encoding="UTF-8" standalone="no"?>
<svg
   xmlns:dc="http://purl.org/dc/elements/1.1/"
   xmlns:cc="http://creativecommons.org/ns#"
   xmlns:rdf="http://www.w3.org/1999/02/22-rdf-syntax-ns#"
   xmlns:svg="http://www.w3.org/2000/svg"
   xmlns="http://www.w3.org/2000/svg"
   xmlns:xlink="http://www.w3.org/1999/xlink"
   height="50"
   width="50"
   xml:space="preserve"
   viewBox="0 0 50 50"
   y="0px"
   x="0px"
   id="Capa_1"
   version="1.1"><metadata
   id="metadata53"><rdf:RDF><cc:Work
       rdf:about=""><dc:format>image/svg+xml</dc:format><dc:type
         rdf:resource="http://purl.org/dc/dcmitype/StillImage" /><dc:title></dc:title></cc:Work></rdf:RDF></metadata><defs
   id="defs51">
	
	

	
	
<linearGradient
   id="k"><stop
     offset="0"
     stop-color="#5b676b"
     id="stop1099" /><stop
     offset="1"
     stop-color="#141718"
     id="stop1101" /></linearGradient><linearGradient
   id="f"><stop
     offset="0"
     id="stop1104" /><stop
     offset="1"
     stop-opacity="0"
     id="stop1106" /></linearGradient><linearGradient
   id="e"><stop
     offset="0"
     stop-color="#fff"
     id="stop1109" /><stop
     offset="1"
     stop-color="#fff"
     stop-opacity="0"
     id="stop1111" /></linearGradient><linearGradient
   gradientTransform="matrix(0.08664065,-0.43732693,0.43732693,0.08664065,115.8668,40.22351)"
   gradientUnits="userSpaceOnUse"
   xlink:href="#e"
   id="x"
   y2="42.282101"
   x2="7.7521"
   y1="37.752201"
   x1="13.2362" /><linearGradient
   id="h"><stop
     offset="0"
     stop-color="#696969"
     id="stop1120" /><stop
     offset="1"
     id="stop1122" /></linearGradient><linearGradient
   id="b"><stop
     offset="0"
     stop-color="#bdbdbd"
     id="stop1125" /><stop
     offset=".3333"
     stop-color="#e2e2e2"
     id="stop1127" /><stop
     offset=".6667"
     stop-color="#a3a3a3"
     id="stop1129" /><stop
     offset="1"
     stop-color="#ddd"
     id="stop1131" /></linearGradient><linearGradient
   gradientTransform="matrix(-0.1478204,-0.50176559,0.50176559,-0.1478204,114.71377,51.739131)"
   gradientUnits="userSpaceOnUse"
   xlink:href="#b"
   id="v"
   y2="33.438801"
   x2="23.109301"
   y1="30.001301"
   x1="19.394699" /><linearGradient
   id="c"><stop
     offset="0"
     stop-color="#6e3d09"
     id="stop1135" /><stop
     offset=".2424"
     stop-color="#ea8113"
     id="stop1137" /><stop
     offset=".6212"
     stop-color="#5c3307"
     id="stop1139" /><stop
     offset="1"
     stop-color="#e07c12"
     id="stop1141" /></linearGradient><linearGradient
   gradientTransform="matrix(-0.1478204,-0.50176559,0.50176559,-0.1478204,116.98895,52.64918)"
   gradientUnits="userSpaceOnUse"
   xlink:href="#c"
   id="u"
   y2="11.1825"
   x2="27.753901"
   y1="19.239901"
   x1="37.017601" /><linearGradient
   id="l"><stop
     offset="0"
     stop-color="#857c63"
     id="stop1145" /><stop
     offset="1"
     stop-color="#221f19"
     id="stop1147" /></linearGradient><linearGradient
   id="i"><stop
     offset="0"
     stop-color="#fff"
     id="stop1160" /><stop
     offset="1"
     stop-color="#b9b9b0"
     id="stop1162" /></linearGradient><linearGradient
   gradientTransform="matrix(1.0301191,-0.77155328,0.77155328,1.0301191,57.290583,-0.59280947)"
   gradientUnits="userSpaceOnUse"
   xlink:href="#e"
   id="s"
   y2="31.57"
   x2="5.9846001"
   y1="23.3624"
   x1="6.3052001" /><linearGradient
   gradientTransform="matrix(1.2870275,0,0,1.2870275,76.949164,-10.023946)"
   gradientUnits="userSpaceOnUse"
   xlink:href="#e"
   id="p"
   y2="46.985699"
   x2="39.524502"
   y1="19.110701"
   x1="14.9688" /><linearGradient
   gradientTransform="matrix(1.2870275,0,0,1.2870275,76.949164,-10.023946)"
   gradientUnits="userSpaceOnUse"
   xlink:href="#f"
   id="y"
   y2="30.985201"
   x2="24.328899"
   y1="30.543301"
   x1="26.163" /><linearGradient
   gradientTransform="matrix(1.2870275,0,0,1.2870275,72.011483,-9.5786345)"
   gradientUnits="userSpaceOnUse"
   xlink:href="#f"
   id="o"
   y2="30.2931"
   x2="21.2132"
   y1="28.083401"
   x1="32.350101" /><radialGradient
   gradientTransform="matrix(-0.23247714,-0.78912674,0.76902601,-0.22655546,106.22603,59.125523)"
   gradientUnits="userSpaceOnUse"
   xlink:href="#h"
   id="w"
   fy="35.356499"
   fx="15.4151"
   r="7.5791998"
   cy="35.356499"
   cx="15.4151" /><radialGradient
   gradientTransform="matrix(2.5453993,0,0,2.5453993,-71.519368,-36.126214)"
   gradientUnits="userSpaceOnUse"
   xlink:href="#i"
   id="t"
   fy="19.5979"
   fx="69.473198"
   r="3.5153"
   cy="19.5979"
   cx="69.473198" /><radialGradient
   gradientTransform="matrix(1.2870275,0,0,0.55977537,77.110042,12.083315)"
   gradientUnits="userSpaceOnUse"
   xlink:href="#f"
   id="m"
   fy="33.9375"
   fx="23"
   r="18.25"
   cy="33.9375"
   cx="23" /><radialGradient
   gradientTransform="matrix(1.0264201,-0.59260299,0.69165605,1.1979927,59.044649,-6.6946713)"
   gradientUnits="userSpaceOnUse"
   xlink:href="#k"
   id="r"
   fy="25.271"
   fx="6.0242"
   r="4.8309999"
   cy="25.271"
   cx="6.0242" /><radialGradient
   gradientTransform="matrix(2.281578,0,0,1.6688628,55.91862,-18.53892)"
   gradientUnits="userSpaceOnUse"
   xlink:href="#l"
   id="n"
   fy="22.299999"
   fx="18.5576"
   r="19.2292"
   cy="22.299999"
   cx="18.5576" /><radialGradient
   gradientTransform="matrix(2.1683069,0,0,2.1683069,-56.128414,-28.664376)"
   gradientUnits="userSpaceOnUse"
   xlink:href="#i"
   id="q"
   fy="19.5979"
   fx="69.473198"
   r="3.5153"
   cy="19.5979"
   cx="69.473198" /><linearGradient
   gradientUnits="userSpaceOnUse"
   y2="64"
   x2="0"
   y1="128"
   x1="0"
   xlink:href="#f"
   id="liquidShade" /><linearGradient
   gradientUnits="userSpaceOnUse"
   y2="76"
   x2="0"
   y1="128"
   x1="0"
   xlink:href="#e"
   id="liquidSpecular" /><linearGradient
   gradientUnits="userSpaceOnUse"
   y2="40"
   x2="60"
   y1="20"
   x1="80"
   xlink:href="#e"
   id="sideSpecular" /><linearGradient
   gradientUnits="userSpaceOnUse"
   y2="50"
   x2="90"
   y1="20"
   x1="60"
   xlink:href="#e"
   id="IcecapTip" /><linearGradient
   gradientUnits="userSpaceOnUse"
   y2="60"
   x2="58"
   y1="35"
   x1="33"
   xlink:href="#e"
   id="shinySpecular" /><linearGradient
   y2="40"
   x2="60"
   y1="20"
   x1="82.119003"
   gradientUnits="userSpaceOnUse"
   id="linearGradient9175"
   xlink:href="#linearGradient5785" /><linearGradient
   id="linearGradient5785"
   gradientUnits="userSpaceOnUse"><stop
     offset="0"
     id="stop5787"
     stop-color="#c0cdf9"
     stop-opacity="1" /><stop
     offset="1"
     id="stop5789"
     stop-color="#07092d"
     stop-opacity=".288" /></linearGradient><linearGradient
   gradientTransform="matrix(1.00918,0,0,1.00918,-0.39,-0.383)"
   id="shinySpecular-4"
   xlink:href="#e"
   x1="33"
   y1="35"
   x2="58"
   y2="60"
   gradientUnits="userSpaceOnUse" /><linearGradient
   gradientUnits="userSpaceOnUse"
   y2="201.5"
   x2="231.75"
   y1="195.188"
   x1="231.625"
   id="linearGradient8912"
   xlink:href="#e" /><linearGradient
   gradientUnits="userSpaceOnUse"
   y2="200.071"
   x2="231.37601"
   y1="195.621"
   x1="231.37601"
   id="linearGradient8910"
   xlink:href="#e" /><linearGradient
   id="linearGradient8998"><stop
     id="stop9000"
     offset="0"
     stop-color="#fff"
     stop-opacity=".33" /><stop
     id="stop9002"
     offset="1"
     stop-color="#fff"
     stop-opacity="0" /></linearGradient><linearGradient
   gradientUnits="userSpaceOnUse"
   y2="223.5"
   x2="153.5"
   y1="208.164"
   x1="95.5"
   id="linearGradient5905"
   xlink:href="#e" /><linearGradient
   gradientTransform="matrix(0.88526,0,0,0.88526,5.177,9.23)"
   gradientUnits="userSpaceOnUse"
   y2="84.480003"
   x2="53.632"
   y1="76.246002"
   x1="57.224998"
   id="linearGradient5801"
   xlink:href="#linearGradient5793-6" /><linearGradient
   id="linearGradient5793-6"><stop
     id="stop5795-2"
     offset="0"
     stop-color="#eeeeec"
     stop-opacity="1" /><stop
     id="stop5797-1"
     offset="1"
     stop-color="#eeeeec"
     stop-opacity="0" /></linearGradient><linearGradient
   y2="187.66"
   x2="82.753998"
   y1="180.476"
   x1="73.711998"
   gradientTransform="matrix(0.4928,0,0,0.4928,-6,-9.723)"
   gradientUnits="userSpaceOnUse"
   id="linearGradient5822"
   xlink:href="#e" /><linearGradient
   id="linearGradient10981-3"><stop
     id="stop10983-2"
     offset="0"
     stop-color="#729fcf"
     stop-opacity="1" /><stop
     id="stop10985-3"
     offset="1"
     stop-color="#729fcf"
     stop-opacity="0" /></linearGradient><linearGradient
   xlink:href="#linearGradient10981-3"
   id="linearGradient1030"
   gradientUnits="userSpaceOnUse"
   gradientTransform="translate(-130.166,-83.353)"
   x1="180.813"
   y1="217.5"
   x2="153.701"
   y2="144.5" /><filter
   y="0"
   x="0"
   filterUnits="userSpaceOnUse"
   id="ShadowBlur"><feGaussianBlur
     id="feGaussianBlur24"
     result="blur"
     stdDeviation="3"
     in="SourceAlpha" /></filter><filter
   id="filter6017"
   style="color-interpolation-filters:sRGB"><feGaussianBlur
     id="feGaussianBlur6019"
     stdDeviation=".805" /></filter><filter
   id="filter6031"
   style="color-interpolation-filters:sRGB"><feGaussianBlur
     id="feGaussianBlur6033"
     stdDeviation="3.49" /></filter><filter
   id="filter8490"
   style="color-interpolation-filters:sRGB"><feGaussianBlur
     id="feGaussianBlur8492"
     stdDeviation="2.416" /></filter><filter
   height="1.228"
   y="-0.114"
   width="1.156"
   x="-0.078000002"
   id="filter8732"
   style="color-interpolation-filters:sRGB"><feGaussianBlur
     id="feGaussianBlur8734"
     stdDeviation="1.958" /></filter><filter
   height="1.351"
   y="-0.175"
   width="1.149"
   x="-0.074000001"
   id="filter8764"
   style="color-interpolation-filters:sRGB"><feGaussianBlur
     id="feGaussianBlur8766"
     stdDeviation="2.12" /></filter><filter
   height="1.556"
   y="-0.278"
   width="1.171"
   x="-0.085000001"
   id="filter8906"
   style="color-interpolation-filters:sRGB"><feGaussianBlur
     id="feGaussianBlur8908"
     stdDeviation=".565" /></filter><filter
   height="1.946"
   y="-0.47299999"
   width="1.14"
   x="-0.07"
   id="filter8980"
   style="color-interpolation-filters:sRGB"><feGaussianBlur
     id="feGaussianBlur8982"
     stdDeviation=".821" /></filter><filter
   height="1.331"
   y="-0.16599999"
   width="1.152"
   x="-0.075999998"
   id="filter9068"
   style="color-interpolation-filters:sRGB"><feGaussianBlur
     id="feGaussianBlur9070"
     stdDeviation=".665" /></filter><filter
   id="filter9298"
   style="color-interpolation-filters:sRGB"><feGaussianBlur
     id="feGaussianBlur9300"
     stdDeviation=".326" /></filter><filter
   height="1.245"
   y="-0.122"
   width="1.165"
   x="-0.082999997"
   id="filter5983-5"
   style="color-interpolation-filters:sRGB"><feGaussianBlur
     id="feGaussianBlur5985-9"
     stdDeviation="3.687" /></filter><filter
   id="filter5845"
   style="color-interpolation-filters:sRGB"><feGaussianBlur
     id="feGaussianBlur5847"
     stdDeviation="1.241" /></filter><filter
   id="filter10997-7"
   style="color-interpolation-filters:sRGB"><feGaussianBlur
     id="feGaussianBlur10999-0"
     stdDeviation="2.77" /></filter><radialGradient
   r="30.6"
   fy="250.897"
   fx="116.31"
   cy="250.897"
   cx="116.31"
   gradientTransform="matrix(1.57005,0,0,1.05093,-75.5,-22.096)"
   gradientUnits="userSpaceOnUse"
   id="radialGradient9177"
   xlink:href="#e" /><radialGradient
   gradientUnits="userSpaceOnUse"
   gradientTransform="matrix(2.00325,0,0,1.3409,-132.875,-95.166)"
   r="30.6"
   fy="251.994"
   fx="132.444"
   cy="251.994"
   cx="132.444"
   id="radialGradient8574"
   xlink:href="#e" /><radialGradient
   gradientUnits="userSpaceOnUse"
   gradientTransform="matrix(1,0,0,0.42336,0,97.164)"
   r="34.25"
   fy="168.5"
   fx="210.25"
   cy="168.5"
   cx="210.25"
   id="radialGradient8744"
   xlink:href="#e" /><radialGradient
   r="34.25"
   fy="182.082"
   fx="217.5"
   cy="182.082"
   cx="217.5"
   gradientTransform="matrix(1,0,0,0.42336,0,97.164)"
   gradientUnits="userSpaceOnUse"
   id="radialGradient8768"
   xlink:href="#e" /><radialGradient
   gradientUnits="userSpaceOnUse"
   gradientTransform="matrix(1,0,0,0.14775,0,174.57)"
   r="14.094"
   fy="204.832"
   fx="228.21899"
   cy="204.832"
   cx="228.21899"
   id="radialGradient8922"
   xlink:href="#e" /><radialGradient
   r="14.094"
   fy="204.832"
   fx="228.21899"
   cy="204.832"
   cx="228.21899"
   gradientTransform="matrix(1,0,0,0.14775,0,174.57)"
   gradientUnits="userSpaceOnUse"
   id="radialGradient8994"
   xlink:href="#e" /><radialGradient
   gradientUnits="userSpaceOnUse"
   gradientTransform="matrix(1,0,0,0.40708,0,115.76)"
   r="22.75"
   fy="187.869"
   fx="89.875"
   cy="187.869"
   cx="89.875"
   id="radialGradient9004"
   xlink:href="#linearGradient8998" /><radialGradient
   gradientUnits="userSpaceOnUse"
   gradientTransform="matrix(1.18508,-0.32836,0.12286,0.4434,-45.068,152.922)"
   r="10.469"
   fy="230.836"
   fx="90.280998"
   cy="230.836"
   cx="90.280998"
   id="radialGradient9046"
   xlink:href="#e" /><radialGradient
   r="54.783001"
   fy="21.226"
   fx="68.400002"
   cy="21.226"
   cx="68.400002"
   gradientTransform="matrix(1.72215,0,0,1.69498,-49.395,-14.078)"
   gradientUnits="userSpaceOnUse"
   id="radialGradient11553"
   xlink:href="#e" /><radialGradient
   gradientUnits="userSpaceOnUse"
   gradientTransform="matrix(1.35152,0,0,1.71757,-63.706,-153.956)"
   r="22.466"
   fy="214.55099"
   fx="181.22701"
   cy="214.55099"
   cx="181.22701"
   id="radialGradient5811"
   xlink:href="#e" /><clipPath
   id="clipoutline1"
   clipPathUnits="userSpaceOnUse"><path
     d="M 54.1,12.5 12.9,54.7 C -2.7,70.3 23,69 32.3,74.9 36.6,77.7 18.5,81.3 22.2,85 c 3.6,3.7 21.7,7.1 25.3,10.7 3.6,3.7 -7.3,7.6 -3.7,11.3 3.5,3.7 11.9,0.2 13.4,8.6 1.1,6.2 15.4,3.1 21.8,-2.2 4,-3.4 -6.9,-3.4 -3.3,-7.1 9,-9.1 17,-4.1 20.3,-12.5 1.8,-4.5 -13.6,-7.7 -9.5,-10.6 9.8,-6.9 45.8,-10.4 29.2,-27 L 73,12.5 c -5.3,-5 -14,-5 -18.9,0 z m -9.9,64.7 c 0.9,0 30.8,4 19.3,7.1 -4.4,1.2 -24.6,-7.1 -19.3,-7.1 z m 57.2,16.6 c 0,2.1 16.3,3.3 15.4,-0.5 -1.3,-6.4 -13.6,-5.9 -15.4,0.5 z m -69.5,11.1 c 3.7,3.2 9.3,-0.7 11.1,-5.2 -3.6,-4.7 -16.9,0.3 -11.1,5.2 z m 67.5,-6.7 c -4.6,4.2 0.8,8.6 5.3,5.7 1.2,-0.8 -0.1,-4.7 -5.3,-5.7 z"
     id="outline1" /></clipPath><clipPath
   id="clipPath9086"
   clipPathUnits="userSpaceOnUse"><use
     height="300"
     width="400"
     y="0"
     x="0"
     class="low-specularity"
     xlink:href="#outline1"
     id="use9088"
     style="fill:#ffffff;fill-opacity:1" /></clipPath>
	
	
<linearGradient
   gradientUnits="userSpaceOnUse"
   y2="50"
   x2="90"
   y1="20"
   x1="60"
   xlink:href="#e"
   id="IcecapTip-0" /><linearGradient
   y2="40"
   x2="60"
   y1="20"
   x1="82.119003"
   gradientUnits="userSpaceOnUse"
   id="linearGradient9175-6"
   xlink:href="#linearGradient5785" /><linearGradient
   gradientTransform="matrix(1.00918,0,0,1.00918,-0.39,-0.383)"
   id="shinySpecular-4-1"
   xlink:href="#e"
   x1="33"
   y1="35"
   x2="58"
   y2="60"
   gradientUnits="userSpaceOnUse" /><linearGradient
   gradientUnits="userSpaceOnUse"
   y2="201.5"
   x2="231.75"
   y1="195.188"
   x1="231.625"
   id="linearGradient8912-8"
   xlink:href="#e" /><linearGradient
   gradientUnits="userSpaceOnUse"
   y2="200.071"
   x2="231.37601"
   y1="195.621"
   x1="231.37601"
   id="linearGradient8910-7"
   xlink:href="#e" /><linearGradient
   gradientUnits="userSpaceOnUse"
   y2="223.5"
   x2="153.5"
   y1="208.164"
   x1="95.5"
   id="linearGradient5905-0"
   xlink:href="#e" /><linearGradient
   gradientTransform="matrix(0.88526,0,0,0.88526,5.177,9.23)"
   gradientUnits="userSpaceOnUse"
   y2="84.480003"
   x2="53.632"
   y1="76.246002"
   x1="57.224998"
   id="linearGradient5801-2"
   xlink:href="#linearGradient5793-6" /><linearGradient
   y2="187.66"
   x2="82.753998"
   y1="180.476"
   x1="73.711998"
   gradientTransform="matrix(0.4928,0,0,0.4928,-6,-9.723)"
   gradientUnits="userSpaceOnUse"
   id="linearGradient5822-5"
   xlink:href="#e" /><linearGradient
   xlink:href="#linearGradient10981-3"
   id="linearGradient1030-2"
   gradientUnits="userSpaceOnUse"
   gradientTransform="translate(-130.166,-83.353)"
   x1="180.813"
   y1="217.5"
   x2="153.701"
   y2="144.5" /><filter
   y="0"
   x="0"
   filterUnits="userSpaceOnUse"
   id="ShadowBlur-8"><feGaussianBlur
     id="feGaussianBlur24-9"
     result="blur"
     stdDeviation="3"
     in="SourceAlpha" /></filter><filter
   id="filter6017-7"
   style="color-interpolation-filters:sRGB"><feGaussianBlur
     id="feGaussianBlur6019-3"
     stdDeviation=".805" /></filter><filter
   id="filter6031-6"
   style="color-interpolation-filters:sRGB"><feGaussianBlur
     id="feGaussianBlur6033-1"
     stdDeviation="3.49" /></filter><filter
   id="filter8490-2"
   style="color-interpolation-filters:sRGB"><feGaussianBlur
     id="feGaussianBlur8492-9"
     stdDeviation="2.416" /></filter><filter
   height="1.228"
   y="-0.114"
   width="1.156"
   x="-0.078000002"
   id="filter8732-3"
   style="color-interpolation-filters:sRGB"><feGaussianBlur
     id="feGaussianBlur8734-1"
     stdDeviation="1.958" /></filter><filter
   height="1.351"
   y="-0.175"
   width="1.149"
   x="-0.074000001"
   id="filter8764-9"
   style="color-interpolation-filters:sRGB"><feGaussianBlur
     id="feGaussianBlur8766-4"
     stdDeviation="2.12" /></filter><filter
   height="1.556"
   y="-0.278"
   width="1.171"
   x="-0.085000001"
   id="filter8906-7"
   style="color-interpolation-filters:sRGB"><feGaussianBlur
     id="feGaussianBlur8908-8"
     stdDeviation=".565" /></filter><filter
   height="1.946"
   y="-0.47299999"
   width="1.14"
   x="-0.07"
   id="filter8980-4"
   style="color-interpolation-filters:sRGB"><feGaussianBlur
     id="feGaussianBlur8982-5"
     stdDeviation=".821" /></filter><filter
   height="1.331"
   y="-0.16599999"
   width="1.152"
   x="-0.075999998"
   id="filter9068-0"
   style="color-interpolation-filters:sRGB"><feGaussianBlur
     id="feGaussianBlur9070-3"
     stdDeviation=".665" /></filter><filter
   id="filter9298-6"
   style="color-interpolation-filters:sRGB"><feGaussianBlur
     id="feGaussianBlur9300-1"
     stdDeviation=".326" /></filter><filter
   height="1.245"
   y="-0.122"
   width="1.165"
   x="-0.082999997"
   id="filter5983-5-0"
   style="color-interpolation-filters:sRGB"><feGaussianBlur
     id="feGaussianBlur5985-9-6"
     stdDeviation="3.687" /></filter><filter
   id="filter5845-3"
   style="color-interpolation-filters:sRGB"><feGaussianBlur
     id="feGaussianBlur5847-2"
     stdDeviation="1.241" /></filter><filter
   id="filter10997-7-0"
   style="color-interpolation-filters:sRGB"><feGaussianBlur
     id="feGaussianBlur10999-0-6"
     stdDeviation="2.77" /></filter><radialGradient
   r="30.6"
   fy="250.897"
   fx="116.31"
   cy="250.897"
   cx="116.31"
   gradientTransform="matrix(1.57005,0,0,1.05093,-75.5,-22.096)"
   gradientUnits="userSpaceOnUse"
   id="radialGradient9177-1"
   xlink:href="#e" /><radialGradient
   gradientUnits="userSpaceOnUse"
   gradientTransform="matrix(2.00325,0,0,1.3409,-132.875,-95.166)"
   r="30.6"
   fy="251.994"
   fx="132.444"
   cy="251.994"
   cx="132.444"
   id="radialGradient8574-5"
   xlink:href="#e" /><radialGradient
   gradientUnits="userSpaceOnUse"
   gradientTransform="matrix(1,0,0,0.42336,0,97.164)"
   r="34.25"
   fy="168.5"
   fx="210.25"
   cy="168.5"
   cx="210.25"
   id="radialGradient8744-5"
   xlink:href="#e" /><radialGradient
   r="34.25"
   fy="182.082"
   fx="217.5"
   cy="182.082"
   cx="217.5"
   gradientTransform="matrix(1,0,0,0.42336,0,97.164)"
   gradientUnits="userSpaceOnUse"
   id="radialGradient8768-4"
   xlink:href="#e" /><radialGradient
   gradientUnits="userSpaceOnUse"
   gradientTransform="matrix(1,0,0,0.14775,0,174.57)"
   r="14.094"
   fy="204.832"
   fx="228.21899"
   cy="204.832"
   cx="228.21899"
   id="radialGradient8922-7"
   xlink:href="#e" /><radialGradient
   r="14.094"
   fy="204.832"
   fx="228.21899"
   cy="204.832"
   cx="228.21899"
   gradientTransform="matrix(1,0,0,0.14775,0,174.57)"
   gradientUnits="userSpaceOnUse"
   id="radialGradient8994-6"
   xlink:href="#e" /><radialGradient
   gradientUnits="userSpaceOnUse"
   gradientTransform="matrix(1,0,0,0.40708,0,115.76)"
   r="22.75"
   fy="187.869"
   fx="89.875"
   cy="187.869"
   cx="89.875"
   id="radialGradient9004-5"
   xlink:href="#linearGradient8998" /><radialGradient
   gradientUnits="userSpaceOnUse"
   gradientTransform="matrix(1.18508,-0.32836,0.12286,0.4434,-45.068,152.922)"
   r="10.469"
   fy="230.836"
   fx="90.280998"
   cy="230.836"
   cx="90.280998"
   id="radialGradient9046-6"
   xlink:href="#e" /><radialGradient
   r="54.783001"
   fy="21.226"
   fx="68.400002"
   cy="21.226"
   cx="68.400002"
   gradientTransform="matrix(1.72215,0,0,1.69498,-49.395,-14.078)"
   gradientUnits="userSpaceOnUse"
   id="radialGradient11553-9"
   xlink:href="#e" /><radialGradient
   gradientUnits="userSpaceOnUse"
   gradientTransform="matrix(1.35152,0,0,1.71757,-63.706,-153.956)"
   r="22.466"
   fy="214.55099"
   fx="181.22701"
   cy="214.55099"
   cx="181.22701"
   id="radialGradient5811-3"
   xlink:href="#e" /><clipPath
   id="clipoutline1-7"
   clipPathUnits="userSpaceOnUse"><path
     d="M 54.1,12.5 12.9,54.7 C -2.7,70.3 23,69 32.3,74.9 36.6,77.7 18.5,81.3 22.2,85 c 3.6,3.7 21.7,7.1 25.3,10.7 3.6,3.7 -7.3,7.6 -3.7,11.3 3.5,3.7 11.9,0.2 13.4,8.6 1.1,6.2 15.4,3.1 21.8,-2.2 4,-3.4 -6.9,-3.4 -3.3,-7.1 9,-9.1 17,-4.1 20.3,-12.5 1.8,-4.5 -13.6,-7.7 -9.5,-10.6 9.8,-6.9 45.8,-10.4 29.2,-27 L 73,12.5 c -5.3,-5 -14,-5 -18.9,0 z m -9.9,64.7 c 0.9,0 30.8,4 19.3,7.1 -4.4,1.2 -24.6,-7.1 -19.3,-7.1 z m 57.2,16.6 c 0,2.1 16.3,3.3 15.4,-0.5 -1.3,-6.4 -13.6,-5.9 -15.4,0.5 z m -69.5,11.1 c 3.7,3.2 9.3,-0.7 11.1,-5.2 -3.6,-4.7 -16.9,0.3 -11.1,5.2 z m 67.5,-6.7 c -4.6,4.2 0.8,8.6 5.3,5.7 1.2,-0.8 -0.1,-4.7 -5.3,-5.7 z"
     id="outline1-4" /></clipPath><clipPath
   id="clipPath9086-5"
   clipPathUnits="userSpaceOnUse"><use
     height="300"
     width="400"
     y="0"
     x="0"
     class="low-specularity"
     xlink:href="#outline1-4"
     id="use9088-2"
     style="fill:#ffffff;fill-opacity:1" /></clipPath><filter
   id="filter9298-6-4"
   style="color-interpolation-filters:sRGB"><feGaussianBlur
     id="feGaussianBlur9300-1-3"
     stdDeviation=".326" /></filter></defs>






<g
   style="fill:none;stroke:#000000;stroke-opacity:1"
   transform="translate(0,-462)"
   id="g18">
</g>
<g
   style="fill:none;stroke:#000000;stroke-opacity:1"
   transform="translate(0,-462)"
   id="g20">
</g>
<g
   style="fill:none;stroke:#000000;stroke-opacity:1"
   transform="translate(0,-462)"
   id="g22">
</g>
<g
   style="fill:none;stroke:#000000;stroke-opacity:1"
   transform="translate(0,-462)"
   id="g24">
</g>
<g
   style="fill:none;stroke:#000000;stroke-opacity:1"
   transform="translate(0,-462)"
   id="g26">
</g>
<g
   style="fill:none;stroke:#000000;stroke-opacity:1"
   transform="translate(0,-462)"
   id="g28">
</g>
<g
   style="fill:none;stroke:#000000;stroke-opacity:1"
   transform="translate(0,-462)"
   id="g30">
</g>
<g
   style="fill:none;stroke:#000000;stroke-opacity:1"
   transform="translate(0,-462)"
   id="g32">
</g>
<g
   style="fill:none;stroke:#000000;stroke-opacity:1"
   transform="translate(0,-462)"
   id="g34">
</g>
<g
   style="fill:none;stroke:#000000;stroke-opacity:1"
   transform="translate(0,-462)"
   id="g36">
</g>
<g
   style="fill:none;stroke:#000000;stroke-opacity:1"
   transform="translate(0,-462)"
   id="g38">
</g>
<g
   style="fill:none;stroke:#000000;stroke-opacity:1"
   transform="translate(0,-462)"
   id="g40">
</g>
<g
   style="fill:none;stroke:#000000;stroke-opacity:1"
   transform="translate(0,-462)"
   id="g42">
</g>
<g
   style="fill:none;stroke:#000000;stroke-opacity:1"
   transform="translate(0,-462)"
   id="g44">
</g>
<g
   style="fill:none;stroke:#000000;stroke-opacity:1"
   transform="translate(0,-462)"
   id="g46">
</g>
<style
   id="style26"
   type="text/css">.low-specularity{opacity:.25}</style><style
   id="style26-5"
   type="text/css">.low-specularity{opacity:.25}</style><g
   style="fill:none;stroke:#000000;stroke-opacity:1"
   transform="translate(-1.1221264e-7,-247)"
   id="layer1"><path
     id="rect4570"
     d="M 7.4687501,247 C 3.3312779,247 1.1221264e-7,250.33128 1.1221264e-7,254.46875 v 35.0625 C 1.1221264e-7,293.66872 3.3312779,297 7.4687501,297 H 42.533203 C 46.670676,297 50,293.66872 50,289.53125 v -35.0625 C 50,250.33128 46.670676,247 42.533203,247 Z m 31.5214849,6.33398 c 1.112842,-0.0436 1.705129,1.00591 1.839843,1.97461 0.59848,4.0859 0.53622,8.25676 0.111328,12.35743 -0.500505,3.92589 -1.232396,8.03757 -3.5625,11.33593 1.657567,0.84233 3.251651,1.80501 4.792969,2.84375 1.542651,-0.91197 3.783251,-0.42238 4.695313,1.15625 0.888443,1.76691 0.816443,3.83853 0.839844,5.76758 -0.159002,0.58947 0.310468,1.66932 -0.40625,1.89844 -1.653544,-0.41006 -3.333909,-0.9879 -4.763672,-1.95703 -1.213771,-0.74771 -1.990213,-2.1065 -1.914063,-3.54297 -2.404092,-0.60283 -4.785385,-1.51441 -7.064453,-2.53516 -1.949287,1.09846 -4.141269,1.90812 -6.396484,2.08203 -5.054059,0.4344 -10.099717,-1.08079 -14.488282,-3.51367 -1.171131,-0.55323 -2.09304,-1.5599 -3.3222653,-1.97656 -3.6637061,-0.46043 -6.602247,-3.75382 -7.015625,-7.35938 -0.293401,-2.11054 0.7639583,-4.48571 2.8652343,-5.21679 1.529613,-0.43887 3.2904841,-0.23855 4.6425781,0.6289 0.4156419,0.23275 0.4427029,-0.79462 0.7207029,-1.04687 0.150586,-2.49473 0.08505,-5.0405 0.152344,-7.55469 0.145425,-0.56982 -0.341981,-1.68407 0.474609,-1.80273 0.869773,0.86421 1.37272,2.0769 2.212891,2.99804 1.598013,1.90676 3.744488,3.84897 6.296875,4.13086 1.177312,-0.99355 2.72118,-1.38322 4.238281,-1.27734 1.01002,-0.11745 1.908042,0.36338 2.835938,0.6582 1.094943,-0.11603 2.137126,-0.60779 3.169922,-0.98242 2.49993,-1.11135 4.896107,-2.8245 6.236328,-5.26367 0.849199,-1.26655 1.042839,-3.48996 2.808594,-3.80274 z m -0.416016,4.86719 c -0.222308,0.37184 -0.536933,0.9355 -0.84375,1.3457 -2.05523,2.99077 -5.329016,4.8386 -8.691406,6.00196 0.269522,0.56267 0.677271,1.24532 0.8125,1.93164 0.795722,2.89815 -0.790827,6.16293 -3.525391,7.38086 -2.518084,1.2751 -5.709914,0.45211 -7.548828,-1.61133 -1.275443,0.99544 -2.986311,1.53569 -4.591797,1.1875 -0.03408,1.37254 -0.528958,2.78416 -1.564453,3.7207 3.592674,2.25885 7.646599,3.81758 11.896484,4.00977 2.195739,0.12398 4.393021,-0.17623 6.451172,-1.07422 -0.496785,-0.33591 -1.010725,-0.64536 -1.515625,-0.96875 -2.909755,0.0668 -5.799404,-0.48036 -8.564453,-1.35742 -0.468397,-0.23616 -1.673878,-0.22512 -1.296875,-1 1.249673,-0.25777 2.592338,-0.0493 3.878906,-0.13281 2.098907,-0.10824 4.325712,0.0238 6.291016,-0.8379 0.795757,-0.3417 0.179976,-1.27444 -0.01953,-1.82617 -0.297996,-0.32372 -0.341725,-1.09302 0.269531,-0.98828 1.25405,0.60749 2.603294,1.59164 2.845703,3.0586 0.622253,0.39925 1.407444,0.56285 2.087891,0.87304 0.800123,-0.91589 1.343156,-2.08155 1.785156,-3.20898 1.899398,-5.25376 2.136948,-10.97388 1.843749,-16.50391 z M 13.228516,263.5 c -0.0045,0.0225 0.0022,0.0726 0,0.0996 -0.25304,0.63441 0.801414,0.22261 0.07031,-0.0371 -0.04931,-0.08 -0.06585,-0.085 -0.07031,-0.0625 z m 10.408203,1.77344 c -1.936809,-0.15114 -3.784593,1.64486 -3.757813,3.5664 -0.269982,1.89699 1.274309,3.67264 3.091797,4.00586 -0.611742,-0.56536 -1.165289,-1.6948 -1.013671,-2.67968 0.100117,-0.78803 0.420456,-1.86805 1.291015,-2.05469 0.738965,0.24411 -0.01655,1.20815 0.552735,1.63672 0.688994,0.87332 2.262965,-0.11477 1.710937,-1.10157 -0.143556,-0.41765 -0.98774,-0.7855 -0.410156,-1.24609 0.83845,-0.17292 1.703677,0.3713 2.265625,0.9668 -0.212103,-1.77441 -1.954174,-3.2089 -3.730469,-3.09375 z m -8.285156,0.90039 c -1.749323,-0.11729 -3.438875,1.69094 -2.867188,3.42578 0.598717,0.70803 0.753775,1.88381 1.744141,2.17578 -1.034196,-1.05603 -0.949839,-3.03313 0.300781,-3.86133 0.820419,-0.0938 0.253839,1.02888 0.689453,1.42969 0.571201,0.73321 1.795672,-0.23854 1.203125,-0.95898 -0.511252,-0.25925 -0.482289,-1.19537 0.207031,-1.04883 0.367028,0.0128 0.915707,0.60299 0.841797,-0.082 -0.417883,-0.67327 -1.326404,-1.04378 -2.11914,-1.08008 z m -7.2460941,3.10937 c 0.453253,0.71323 0.5475669,1.62029 0.3574219,2.4336 -0.226508,1.30838 -1.787404,2.39881 -3.015625,1.61914 0.625791,1.3194 1.7763912,2.6652 3.2851562,3.10351 1.141466,0.61988 2.715553,-0.12622 2.833984,-1.46093 0.232961,-2.34893 -1.309413,-4.68255 -3.4082027,-5.67188 z M 44.00586,283.88281 c -0.836,0.0515 -0.923521,1.14574 -0.75586,1.76758 0.321339,0.79841 1.179209,1.20058 1.900391,1.59961 0.05201,-0.35192 -0.07823,-0.8823 -0.125,-1.29492 -0.1899,-0.7049 -0.09729,-1.89388 -1.019531,-2.07227 z"
     style="opacity:1;fill:#225222;fill-opacity:1;stroke:none;stroke-width:0.20609625;stroke-miterlimit:4;stroke-dasharray:none;stroke-opacity:1" /></g></svg>