<?xml version="1.0" encoding="UTF-8" standalone="no"?>
<svg
   xmlns:dc="http://purl.org/dc/elements/1.1/"
   xmlns:cc="http://creativecommons.org/ns#"
   xmlns:rdf="http://www.w3.org/1999/02/22-rdf-syntax-ns#"
   xmlns:svg="http://www.w3.org/2000/svg"
   xmlns="http://www.w3.org/2000/svg"
   xmlns:xlink="http://www.w3.org/1999/xlink"
   version="1.1"
   id="Capa_1"
   x="0px"
   y="0px"
   viewBox="0 0 50 40"
   xml:space="preserve"
   width="50"
   height="40"><metadata
   id="metadata53"><rdf:RDF><cc:Work
       rdf:about=""><dc:format>image/svg+xml</dc:format><dc:type
         rdf:resource="http://purl.org/dc/dcmitype/StillImage" /><dc:title></dc:title></cc:Work></rdf:RDF></metadata><defs
   id="defs51">
	
	

	
	
<linearGradient
   id="k"><stop
     id="stop1099"
     stop-color="#5b676b"
     offset="0" /><stop
     id="stop1101"
     stop-color="#141718"
     offset="1" /></linearGradient><linearGradient
   id="f"><stop
     id="stop1104"
     offset="0" /><stop
     id="stop1106"
     stop-opacity="0"
     offset="1" /></linearGradient><linearGradient
   id="e"><stop
     id="stop1109"
     stop-color="#fff"
     offset="0" /><stop
     id="stop1111"
     stop-opacity="0"
     stop-color="#fff"
     offset="1" /></linearGradient><linearGradient
   x1="13.2362"
   y1="37.752201"
   x2="7.7521"
   y2="42.282101"
   id="x"
   xlink:href="#e"
   gradientUnits="userSpaceOnUse"
   gradientTransform="matrix(0.08664065,-0.43732693,0.43732693,0.08664065,115.8668,40.22351)" /><linearGradient
   id="h"><stop
     id="stop1120"
     stop-color="#696969"
     offset="0" /><stop
     id="stop1122"
     offset="1" /></linearGradient><linearGradient
   id="b"><stop
     id="stop1125"
     stop-color="#bdbdbd"
     offset="0" /><stop
     id="stop1127"
     stop-color="#e2e2e2"
     offset=".3333" /><stop
     id="stop1129"
     stop-color="#a3a3a3"
     offset=".6667" /><stop
     id="stop1131"
     stop-color="#ddd"
     offset="1" /></linearGradient><linearGradient
   x1="19.394699"
   y1="30.001301"
   x2="23.109301"
   y2="33.438801"
   id="v"
   xlink:href="#b"
   gradientUnits="userSpaceOnUse"
   gradientTransform="matrix(-0.1478204,-0.50176559,0.50176559,-0.1478204,114.71377,51.739131)" /><linearGradient
   id="c"><stop
     id="stop1135"
     stop-color="#6e3d09"
     offset="0" /><stop
     id="stop1137"
     stop-color="#ea8113"
     offset=".2424" /><stop
     id="stop1139"
     stop-color="#5c3307"
     offset=".6212" /><stop
     id="stop1141"
     stop-color="#e07c12"
     offset="1" /></linearGradient><linearGradient
   x1="37.017601"
   y1="19.239901"
   x2="27.753901"
   y2="11.1825"
   id="u"
   xlink:href="#c"
   gradientUnits="userSpaceOnUse"
   gradientTransform="matrix(-0.1478204,-0.50176559,0.50176559,-0.1478204,116.98895,52.64918)" /><linearGradient
   id="l"><stop
     id="stop1145"
     stop-color="#857c63"
     offset="0" /><stop
     id="stop1147"
     stop-color="#221f19"
     offset="1" /></linearGradient><linearGradient
   id="i"><stop
     id="stop1160"
     stop-color="#fff"
     offset="0" /><stop
     id="stop1162"
     stop-color="#b9b9b0"
     offset="1" /></linearGradient><linearGradient
   x1="6.3052001"
   y1="23.3624"
   x2="5.9846001"
   y2="31.57"
   id="s"
   xlink:href="#e"
   gradientUnits="userSpaceOnUse"
   gradientTransform="matrix(1.0301191,-0.77155328,0.77155328,1.0301191,57.290583,-0.59280947)" /><linearGradient
   x1="14.9688"
   y1="19.110701"
   x2="39.524502"
   y2="46.985699"
   id="p"
   xlink:href="#e"
   gradientUnits="userSpaceOnUse"
   gradientTransform="matrix(1.2870275,0,0,1.2870275,76.949164,-10.023946)" /><linearGradient
   x1="26.163"
   y1="30.543301"
   x2="24.328899"
   y2="30.985201"
   id="y"
   xlink:href="#f"
   gradientUnits="userSpaceOnUse"
   gradientTransform="matrix(1.2870275,0,0,1.2870275,76.949164,-10.023946)" /><linearGradient
   x1="32.350101"
   y1="28.083401"
   x2="21.2132"
   y2="30.2931"
   id="o"
   xlink:href="#f"
   gradientUnits="userSpaceOnUse"
   gradientTransform="matrix(1.2870275,0,0,1.2870275,72.011483,-9.5786345)" /><radialGradient
   cx="15.4151"
   cy="35.356499"
   r="7.5791998"
   fx="15.4151"
   fy="35.356499"
   id="w"
   xlink:href="#h"
   gradientUnits="userSpaceOnUse"
   gradientTransform="matrix(-0.23247714,-0.78912674,0.76902601,-0.22655546,106.22603,59.125523)" /><radialGradient
   cx="69.473198"
   cy="19.5979"
   r="3.5153"
   fx="69.473198"
   fy="19.5979"
   id="t"
   xlink:href="#i"
   gradientUnits="userSpaceOnUse"
   gradientTransform="matrix(2.5453993,0,0,2.5453993,-71.519368,-36.126214)" /><radialGradient
   cx="23"
   cy="33.9375"
   r="18.25"
   fx="23"
   fy="33.9375"
   id="m"
   xlink:href="#f"
   gradientUnits="userSpaceOnUse"
   gradientTransform="matrix(1.2870275,0,0,0.55977537,77.110042,12.083315)" /><radialGradient
   cx="6.0242"
   cy="25.271"
   r="4.8309999"
   fx="6.0242"
   fy="25.271"
   id="r"
   xlink:href="#k"
   gradientUnits="userSpaceOnUse"
   gradientTransform="matrix(1.0264201,-0.59260299,0.69165605,1.1979927,59.044649,-6.6946713)" /><radialGradient
   cx="18.5576"
   cy="22.299999"
   r="19.2292"
   fx="18.5576"
   fy="22.299999"
   id="n"
   xlink:href="#l"
   gradientUnits="userSpaceOnUse"
   gradientTransform="matrix(2.281578,0,0,1.6688628,55.91862,-18.53892)" /><radialGradient
   cx="69.473198"
   cy="19.5979"
   r="3.5153"
   fx="69.473198"
   fy="19.5979"
   id="q"
   xlink:href="#i"
   gradientUnits="userSpaceOnUse"
   gradientTransform="matrix(2.1683069,0,0,2.1683069,-56.128414,-28.664376)" /><linearGradient
   id="liquidShade"
   xlink:href="#f"
   x1="0"
   y1="128"
   x2="0"
   y2="64"
   gradientUnits="userSpaceOnUse" /><linearGradient
   id="liquidSpecular"
   xlink:href="#e"
   x1="0"
   y1="128"
   x2="0"
   y2="76"
   gradientUnits="userSpaceOnUse" /><linearGradient
   id="sideSpecular"
   xlink:href="#e"
   x1="80"
   y1="20"
   x2="60"
   y2="40"
   gradientUnits="userSpaceOnUse" /><linearGradient
   id="IcecapTip"
   xlink:href="#e"
   x1="60"
   y1="20"
   x2="90"
   y2="50"
   gradientUnits="userSpaceOnUse" /><linearGradient
   id="shinySpecular"
   xlink:href="#e"
   x1="33"
   y1="35"
   x2="58"
   y2="60"
   gradientUnits="userSpaceOnUse" /><linearGradient
   xlink:href="#linearGradient5785"
   id="linearGradient9175"
   gradientUnits="userSpaceOnUse"
   x1="82.119003"
   y1="20"
   x2="60"
   y2="40" /><linearGradient
   gradientUnits="userSpaceOnUse"
   id="linearGradient5785"><stop
     stop-opacity="1"
     stop-color="#c0cdf9"
     id="stop5787"
     offset="0" /><stop
     stop-opacity=".288"
     stop-color="#07092d"
     id="stop5789"
     offset="1" /></linearGradient><linearGradient
   gradientUnits="userSpaceOnUse"
   y2="60"
   x2="58"
   y1="35"
   x1="33"
   xlink:href="#e"
   id="shinySpecular-4"
   gradientTransform="matrix(1.00918,0,0,1.00918,-0.39,-0.383)" /><linearGradient
   xlink:href="#e"
   id="linearGradient8912"
   x1="231.625"
   y1="195.188"
   x2="231.75"
   y2="201.5"
   gradientUnits="userSpaceOnUse" /><linearGradient
   xlink:href="#e"
   id="linearGradient8910"
   x1="231.37601"
   y1="195.621"
   x2="231.37601"
   y2="200.071"
   gradientUnits="userSpaceOnUse" /><linearGradient
   id="linearGradient8998"><stop
     stop-opacity=".33"
     stop-color="#fff"
     offset="0"
     id="stop9000" /><stop
     stop-opacity="0"
     stop-color="#fff"
     offset="1"
     id="stop9002" /></linearGradient><linearGradient
   xlink:href="#e"
   id="linearGradient5905"
   x1="95.5"
   y1="208.164"
   x2="153.5"
   y2="223.5"
   gradientUnits="userSpaceOnUse" /><linearGradient
   xlink:href="#linearGradient5793-6"
   id="linearGradient5801"
   x1="57.224998"
   y1="76.246002"
   x2="53.632"
   y2="84.480003"
   gradientUnits="userSpaceOnUse"
   gradientTransform="matrix(0.88526,0,0,0.88526,5.177,9.23)" /><linearGradient
   id="linearGradient5793-6"><stop
     stop-opacity="1"
     stop-color="#eeeeec"
     offset="0"
     id="stop5795-2" /><stop
     stop-opacity="0"
     stop-color="#eeeeec"
     offset="1"
     id="stop5797-1" /></linearGradient><linearGradient
   xlink:href="#e"
   id="linearGradient5822"
   gradientUnits="userSpaceOnUse"
   gradientTransform="matrix(0.4928,0,0,0.4928,-6,-9.723)"
   x1="73.711998"
   y1="180.476"
   x2="82.753998"
   y2="187.66" /><linearGradient
   id="linearGradient10981-3"><stop
     stop-opacity="1"
     stop-color="#729fcf"
     offset="0"
     id="stop10983-2" /><stop
     stop-opacity="0"
     stop-color="#729fcf"
     offset="1"
     id="stop10985-3" /></linearGradient><linearGradient
   y2="144.5"
   x2="153.701"
   y1="217.5"
   x1="180.813"
   gradientTransform="translate(-130.166,-83.353)"
   gradientUnits="userSpaceOnUse"
   id="linearGradient1030"
   xlink:href="#linearGradient10981-3" /><filter
   id="ShadowBlur"
   filterUnits="userSpaceOnUse"
   x="0"
   y="0"><feGaussianBlur
     in="SourceAlpha"
     stdDeviation="3"
     result="blur"
     id="feGaussianBlur24" /></filter><filter
   style="color-interpolation-filters:sRGB"
   id="filter6017"><feGaussianBlur
     stdDeviation=".805"
     id="feGaussianBlur6019" /></filter><filter
   style="color-interpolation-filters:sRGB"
   id="filter6031"><feGaussianBlur
     stdDeviation="3.49"
     id="feGaussianBlur6033" /></filter><filter
   style="color-interpolation-filters:sRGB"
   id="filter8490"><feGaussianBlur
     stdDeviation="2.416"
     id="feGaussianBlur8492" /></filter><filter
   style="color-interpolation-filters:sRGB"
   id="filter8732"
   x="-0.078000002"
   width="1.156"
   y="-0.114"
   height="1.228"><feGaussianBlur
     stdDeviation="1.958"
     id="feGaussianBlur8734" /></filter><filter
   style="color-interpolation-filters:sRGB"
   id="filter8764"
   x="-0.074000001"
   width="1.149"
   y="-0.175"
   height="1.351"><feGaussianBlur
     stdDeviation="2.12"
     id="feGaussianBlur8766" /></filter><filter
   style="color-interpolation-filters:sRGB"
   id="filter8906"
   x="-0.085000001"
   width="1.171"
   y="-0.278"
   height="1.556"><feGaussianBlur
     stdDeviation=".565"
     id="feGaussianBlur8908" /></filter><filter
   style="color-interpolation-filters:sRGB"
   id="filter8980"
   x="-0.07"
   width="1.14"
   y="-0.47299999"
   height="1.946"><feGaussianBlur
     stdDeviation=".821"
     id="feGaussianBlur8982" /></filter><filter
   style="color-interpolation-filters:sRGB"
   id="filter9068"
   x="-0.075999998"
   width="1.152"
   y="-0.16599999"
   height="1.331"><feGaussianBlur
     stdDeviation=".665"
     id="feGaussianBlur9070" /></filter><filter
   style="color-interpolation-filters:sRGB"
   id="filter9298"><feGaussianBlur
     stdDeviation=".326"
     id="feGaussianBlur9300" /></filter><filter
   style="color-interpolation-filters:sRGB"
   id="filter5983-5"
   x="-0.082999997"
   width="1.165"
   y="-0.122"
   height="1.245"><feGaussianBlur
     stdDeviation="3.687"
     id="feGaussianBlur5985-9" /></filter><filter
   style="color-interpolation-filters:sRGB"
   id="filter5845"><feGaussianBlur
     stdDeviation="1.241"
     id="feGaussianBlur5847" /></filter><filter
   style="color-interpolation-filters:sRGB"
   id="filter10997-7"><feGaussianBlur
     stdDeviation="2.77"
     id="feGaussianBlur10999-0" /></filter><radialGradient
   xlink:href="#e"
   id="radialGradient9177"
   gradientUnits="userSpaceOnUse"
   gradientTransform="matrix(1.57005,0,0,1.05093,-75.5,-22.096)"
   cx="116.31"
   cy="250.897"
   fx="116.31"
   fy="250.897"
   r="30.6" /><radialGradient
   xlink:href="#e"
   id="radialGradient8574"
   cx="132.444"
   cy="251.994"
   fx="132.444"
   fy="251.994"
   r="30.6"
   gradientTransform="matrix(2.00325,0,0,1.3409,-132.875,-95.166)"
   gradientUnits="userSpaceOnUse" /><radialGradient
   xlink:href="#e"
   id="radialGradient8744"
   cx="210.25"
   cy="168.5"
   fx="210.25"
   fy="168.5"
   r="34.25"
   gradientTransform="matrix(1,0,0,0.42336,0,97.164)"
   gradientUnits="userSpaceOnUse" /><radialGradient
   xlink:href="#e"
   id="radialGradient8768"
   gradientUnits="userSpaceOnUse"
   gradientTransform="matrix(1,0,0,0.42336,0,97.164)"
   cx="217.5"
   cy="182.082"
   fx="217.5"
   fy="182.082"
   r="34.25" /><radialGradient
   xlink:href="#e"
   id="radialGradient8922"
   cx="228.21899"
   cy="204.832"
   fx="228.21899"
   fy="204.832"
   r="14.094"
   gradientTransform="matrix(1,0,0,0.14775,0,174.57)"
   gradientUnits="userSpaceOnUse" /><radialGradient
   xlink:href="#e"
   id="radialGradient8994"
   gradientUnits="userSpaceOnUse"
   gradientTransform="matrix(1,0,0,0.14775,0,174.57)"
   cx="228.21899"
   cy="204.832"
   fx="228.21899"
   fy="204.832"
   r="14.094" /><radialGradient
   xlink:href="#linearGradient8998"
   id="radialGradient9004"
   cx="89.875"
   cy="187.869"
   fx="89.875"
   fy="187.869"
   r="22.75"
   gradientTransform="matrix(1,0,0,0.40708,0,115.76)"
   gradientUnits="userSpaceOnUse" /><radialGradient
   xlink:href="#e"
   id="radialGradient9046"
   cx="90.280998"
   cy="230.836"
   fx="90.280998"
   fy="230.836"
   r="10.469"
   gradientTransform="matrix(1.18508,-0.32836,0.12286,0.4434,-45.068,152.922)"
   gradientUnits="userSpaceOnUse" /><radialGradient
   xlink:href="#e"
   id="radialGradient11553"
   gradientUnits="userSpaceOnUse"
   gradientTransform="matrix(1.72215,0,0,1.69498,-49.395,-14.078)"
   cx="68.400002"
   cy="21.226"
   fx="68.400002"
   fy="21.226"
   r="54.783001" /><radialGradient
   xlink:href="#e"
   id="radialGradient5811"
   cx="181.22701"
   cy="214.55099"
   fx="181.22701"
   fy="214.55099"
   r="22.466"
   gradientTransform="matrix(1.35152,0,0,1.71757,-63.706,-153.956)"
   gradientUnits="userSpaceOnUse" /><clipPath
   clipPathUnits="userSpaceOnUse"
   id="clipoutline1"><path
     id="outline1"
     d="M 54.1,12.5 12.9,54.7 C -2.7,70.3 23,69 32.3,74.9 36.6,77.7 18.5,81.3 22.2,85 c 3.6,3.7 21.7,7.1 25.3,10.7 3.6,3.7 -7.3,7.6 -3.7,11.3 3.5,3.7 11.9,0.2 13.4,8.6 1.1,6.2 15.4,3.1 21.8,-2.2 4,-3.4 -6.9,-3.4 -3.3,-7.1 9,-9.1 17,-4.1 20.3,-12.5 1.8,-4.5 -13.6,-7.7 -9.5,-10.6 9.8,-6.9 45.8,-10.4 29.2,-27 L 73,12.5 c -5.3,-5 -14,-5 -18.9,0 z m -9.9,64.7 c 0.9,0 30.8,4 19.3,7.1 -4.4,1.2 -24.6,-7.1 -19.3,-7.1 z m 57.2,16.6 c 0,2.1 16.3,3.3 15.4,-0.5 -1.3,-6.4 -13.6,-5.9 -15.4,0.5 z m -69.5,11.1 c 3.7,3.2 9.3,-0.7 11.1,-5.2 -3.6,-4.7 -16.9,0.3 -11.1,5.2 z m 67.5,-6.7 c -4.6,4.2 0.8,8.6 5.3,5.7 1.2,-0.8 -0.1,-4.7 -5.3,-5.7 z" /></clipPath><clipPath
   clipPathUnits="userSpaceOnUse"
   id="clipPath9086"><use
     style="fill:#ffffff;fill-opacity:1"
     id="use9088"
     xlink:href="#outline1"
     class="low-specularity"
     x="0"
     y="0"
     width="400"
     height="300" /></clipPath>
	
	
<linearGradient
   id="IcecapTip-0"
   xlink:href="#e"
   x1="60"
   y1="20"
   x2="90"
   y2="50"
   gradientUnits="userSpaceOnUse" /><linearGradient
   xlink:href="#linearGradient5785"
   id="linearGradient9175-6"
   gradientUnits="userSpaceOnUse"
   x1="82.119003"
   y1="20"
   x2="60"
   y2="40" /><linearGradient
   gradientUnits="userSpaceOnUse"
   y2="60"
   x2="58"
   y1="35"
   x1="33"
   xlink:href="#e"
   id="shinySpecular-4-1"
   gradientTransform="matrix(1.00918,0,0,1.00918,-0.39,-0.383)" /><linearGradient
   xlink:href="#e"
   id="linearGradient8912-8"
   x1="231.625"
   y1="195.188"
   x2="231.75"
   y2="201.5"
   gradientUnits="userSpaceOnUse" /><linearGradient
   xlink:href="#e"
   id="linearGradient8910-7"
   x1="231.37601"
   y1="195.621"
   x2="231.37601"
   y2="200.071"
   gradientUnits="userSpaceOnUse" /><linearGradient
   xlink:href="#e"
   id="linearGradient5905-0"
   x1="95.5"
   y1="208.164"
   x2="153.5"
   y2="223.5"
   gradientUnits="userSpaceOnUse" /><linearGradient
   xlink:href="#linearGradient5793-6"
   id="linearGradient5801-2"
   x1="57.224998"
   y1="76.246002"
   x2="53.632"
   y2="84.480003"
   gradientUnits="userSpaceOnUse"
   gradientTransform="matrix(0.88526,0,0,0.88526,5.177,9.23)" /><linearGradient
   xlink:href="#e"
   id="linearGradient5822-5"
   gradientUnits="userSpaceOnUse"
   gradientTransform="matrix(0.4928,0,0,0.4928,-6,-9.723)"
   x1="73.711998"
   y1="180.476"
   x2="82.753998"
   y2="187.66" /><linearGradient
   y2="144.5"
   x2="153.701"
   y1="217.5"
   x1="180.813"
   gradientTransform="translate(-130.166,-83.353)"
   gradientUnits="userSpaceOnUse"
   id="linearGradient1030-2"
   xlink:href="#linearGradient10981-3" /><filter
   id="ShadowBlur-8"
   filterUnits="userSpaceOnUse"
   x="0"
   y="0"><feGaussianBlur
     in="SourceAlpha"
     stdDeviation="3"
     result="blur"
     id="feGaussianBlur24-9" /></filter><filter
   style="color-interpolation-filters:sRGB"
   id="filter6017-7"><feGaussianBlur
     stdDeviation=".805"
     id="feGaussianBlur6019-3" /></filter><filter
   style="color-interpolation-filters:sRGB"
   id="filter6031-6"><feGaussianBlur
     stdDeviation="3.49"
     id="feGaussianBlur6033-1" /></filter><filter
   style="color-interpolation-filters:sRGB"
   id="filter8490-2"><feGaussianBlur
     stdDeviation="2.416"
     id="feGaussianBlur8492-9" /></filter><filter
   style="color-interpolation-filters:sRGB"
   id="filter8732-3"
   x="-0.078000002"
   width="1.156"
   y="-0.114"
   height="1.228"><feGaussianBlur
     stdDeviation="1.958"
     id="feGaussianBlur8734-1" /></filter><filter
   style="color-interpolation-filters:sRGB"
   id="filter8764-9"
   x="-0.074000001"
   width="1.149"
   y="-0.175"
   height="1.351"><feGaussianBlur
     stdDeviation="2.12"
     id="feGaussianBlur8766-4" /></filter><filter
   style="color-interpolation-filters:sRGB"
   id="filter8906-7"
   x="-0.085000001"
   width="1.171"
   y="-0.278"
   height="1.556"><feGaussianBlur
     stdDeviation=".565"
     id="feGaussianBlur8908-8" /></filter><filter
   style="color-interpolation-filters:sRGB"
   id="filter8980-4"
   x="-0.07"
   width="1.14"
   y="-0.47299999"
   height="1.946"><feGaussianBlur
     stdDeviation=".821"
     id="feGaussianBlur8982-5" /></filter><filter
   style="color-interpolation-filters:sRGB"
   id="filter9068-0"
   x="-0.075999998"
   width="1.152"
   y="-0.16599999"
   height="1.331"><feGaussianBlur
     stdDeviation=".665"
     id="feGaussianBlur9070-3" /></filter><filter
   style="color-interpolation-filters:sRGB"
   id="filter9298-6"><feGaussianBlur
     stdDeviation=".326"
     id="feGaussianBlur9300-1" /></filter><filter
   style="color-interpolation-filters:sRGB"
   id="filter5983-5-0"
   x="-0.082999997"
   width="1.165"
   y="-0.122"
   height="1.245"><feGaussianBlur
     stdDeviation="3.687"
     id="feGaussianBlur5985-9-6" /></filter><filter
   style="color-interpolation-filters:sRGB"
   id="filter5845-3"><feGaussianBlur
     stdDeviation="1.241"
     id="feGaussianBlur5847-2" /></filter><filter
   style="color-interpolation-filters:sRGB"
   id="filter10997-7-0"><feGaussianBlur
     stdDeviation="2.77"
     id="feGaussianBlur10999-0-6" /></filter><radialGradient
   xlink:href="#e"
   id="radialGradient9177-1"
   gradientUnits="userSpaceOnUse"
   gradientTransform="matrix(1.57005,0,0,1.05093,-75.5,-22.096)"
   cx="116.31"
   cy="250.897"
   fx="116.31"
   fy="250.897"
   r="30.6" /><radialGradient
   xlink:href="#e"
   id="radialGradient8574-5"
   cx="132.444"
   cy="251.994"
   fx="132.444"
   fy="251.994"
   r="30.6"
   gradientTransform="matrix(2.00325,0,0,1.3409,-132.875,-95.166)"
   gradientUnits="userSpaceOnUse" /><radialGradient
   xlink:href="#e"
   id="radialGradient8744-5"
   cx="210.25"
   cy="168.5"
   fx="210.25"
   fy="168.5"
   r="34.25"
   gradientTransform="matrix(1,0,0,0.42336,0,97.164)"
   gradientUnits="userSpaceOnUse" /><radialGradient
   xlink:href="#e"
   id="radialGradient8768-4"
   gradientUnits="userSpaceOnUse"
   gradientTransform="matrix(1,0,0,0.42336,0,97.164)"
   cx="217.5"
   cy="182.082"
   fx="217.5"
   fy="182.082"
   r="34.25" /><radialGradient
   xlink:href="#e"
   id="radialGradient8922-7"
   cx="228.21899"
   cy="204.832"
   fx="228.21899"
   fy="204.832"
   r="14.094"
   gradientTransform="matrix(1,0,0,0.14775,0,174.57)"
   gradientUnits="userSpaceOnUse" /><radialGradient
   xlink:href="#e"
   id="radialGradient8994-6"
   gradientUnits="userSpaceOnUse"
   gradientTransform="matrix(1,0,0,0.14775,0,174.57)"
   cx="228.21899"
   cy="204.832"
   fx="228.21899"
   fy="204.832"
   r="14.094" /><radialGradient
   xlink:href="#linearGradient8998"
   id="radialGradient9004-5"
   cx="89.875"
   cy="187.869"
   fx="89.875"
   fy="187.869"
   r="22.75"
   gradientTransform="matrix(1,0,0,0.40708,0,115.76)"
   gradientUnits="userSpaceOnUse" /><radialGradient
   xlink:href="#e"
   id="radialGradient9046-6"
   cx="90.280998"
   cy="230.836"
   fx="90.280998"
   fy="230.836"
   r="10.469"
   gradientTransform="matrix(1.18508,-0.32836,0.12286,0.4434,-45.068,152.922)"
   gradientUnits="userSpaceOnUse" /><radialGradient
   xlink:href="#e"
   id="radialGradient11553-9"
   gradientUnits="userSpaceOnUse"
   gradientTransform="matrix(1.72215,0,0,1.69498,-49.395,-14.078)"
   cx="68.400002"
   cy="21.226"
   fx="68.400002"
   fy="21.226"
   r="54.783001" /><radialGradient
   xlink:href="#e"
   id="radialGradient5811-3"
   cx="181.22701"
   cy="214.55099"
   fx="181.22701"
   fy="214.55099"
   r="22.466"
   gradientTransform="matrix(1.35152,0,0,1.71757,-63.706,-153.956)"
   gradientUnits="userSpaceOnUse" /><clipPath
   clipPathUnits="userSpaceOnUse"
   id="clipoutline1-7"><path
     id="outline1-4"
     d="M 54.1,12.5 12.9,54.7 C -2.7,70.3 23,69 32.3,74.9 36.6,77.7 18.5,81.3 22.2,85 c 3.6,3.7 21.7,7.1 25.3,10.7 3.6,3.7 -7.3,7.6 -3.7,11.3 3.5,3.7 11.9,0.2 13.4,8.6 1.1,6.2 15.4,3.1 21.8,-2.2 4,-3.4 -6.9,-3.4 -3.3,-7.1 9,-9.1 17,-4.1 20.3,-12.5 1.8,-4.5 -13.6,-7.7 -9.5,-10.6 9.8,-6.9 45.8,-10.4 29.2,-27 L 73,12.5 c -5.3,-5 -14,-5 -18.9,0 z m -9.9,64.7 c 0.9,0 30.8,4 19.3,7.1 -4.4,1.2 -24.6,-7.1 -19.3,-7.1 z m 57.2,16.6 c 0,2.1 16.3,3.3 15.4,-0.5 -1.3,-6.4 -13.6,-5.9 -15.4,0.5 z m -69.5,11.1 c 3.7,3.2 9.3,-0.7 11.1,-5.2 -3.6,-4.7 -16.9,0.3 -11.1,5.2 z m 67.5,-6.7 c -4.6,4.2 0.8,8.6 5.3,5.7 1.2,-0.8 -0.1,-4.7 -5.3,-5.7 z" /></clipPath><clipPath
   clipPathUnits="userSpaceOnUse"
   id="clipPath9086-5"><use
     style="fill:#ffffff;fill-opacity:1"
     id="use9088-2"
     xlink:href="#outline1-4"
     class="low-specularity"
     x="0"
     y="0"
     width="400"
     height="300" /></clipPath><filter
   style="color-interpolation-filters:sRGB"
   id="filter9298-6-4"><feGaussianBlur
     stdDeviation=".326"
     id="feGaussianBlur9300-1-3" /></filter></defs>






<g
   id="g18"
   transform="translate(0,-472)">
</g>
<g
   id="g20"
   transform="translate(0,-472)">
</g>
<g
   id="g22"
   transform="translate(0,-472)">
</g>
<g
   id="g24"
   transform="translate(0,-472)">
</g>
<g
   id="g26"
   transform="translate(0,-472)">
</g>
<g
   id="g28"
   transform="translate(0,-472)">
</g>
<g
   id="g30"
   transform="translate(0,-472)">
</g>
<g
   id="g32"
   transform="translate(0,-472)">
</g>
<g
   id="g34"
   transform="translate(0,-472)">
</g>
<g
   id="g36"
   transform="translate(0,-472)">
</g>
<g
   id="g38"
   transform="translate(0,-472)">
</g>
<g
   id="g40"
   transform="translate(0,-472)">
</g>
<g
   id="g42"
   transform="translate(0,-472)">
</g>
<g
   id="g44"
   transform="translate(0,-472)">
</g>
<g
   id="g46"
   transform="translate(0,-472)">
</g>
<style
   type="text/css"
   id="style26">.low-specularity{opacity:.25}</style><style
   type="text/css"
   id="style26-5">.low-specularity{opacity:.25}</style><g
   id="layer1"
   transform="translate(-1.1221264e-7,-257)"><g
     id="g1344"
     transform="matrix(0.84452924,0,0,0.87656683,-65.634016,257.89145)"><path
       id="path1182"
       overflow="visible"
       d="m 130.19993,31.080427 a 23.488253,10.215778 0 1 1 -46.976507,0 23.488253,10.215778 0 1 1 46.976507,0 z"
       style="color:#000000;overflow:visible;fill:#999999;fill-rule:evenodd;stroke-width:1.59202754;marker:none" /><path
       style="color:#000000;overflow:visible;fill:#2e3436;fill-opacity:1;fill-rule:evenodd;stroke:none;stroke-width:1.44569409;stroke-miterlimit:10;marker:none"
       d="m 89.486177,2.4861319 c 0,0 3.433814,9.6364021 12.968113,9.3899261 19.98037,-0.521255 21.09905,-10.4598869 21.60039,-12.02335413 0.50119,-1.56361467 2.55153,-0.81339504 2.7289,0.63155179 C 134.04634,58.821237 82.769681,34.19516 80.824154,23.710707 c 10.276088,-3.12723 7.256229,-4.757496 7.256229,-4.757496 0.08058,-2.474683 0.332602,-4.520787 1.093636,-5.294348 z"
       overflow="visible"
       stroke-miterlimit="10"
       id="path1323" /><path
       id="path1184"
       stroke-miterlimit="10"
       overflow="visible"
       d="m 90.301302,6.0225842 c 0,0 3.699561,7.6289838 12.354438,7.4137928 18.13743,-0.455093 21.31793,-9.9165465 21.77303,-11.2815679 0.45496,-1.36515004 1.15124,-1.15832473 1.31225,0.1032196 5.91544,53.6938863 -41.052316,30.6559653 -42.720304,21.5108633 9.328247,-2.730301 7.052911,-7.963097 7.052911,-7.963097 z"
       style="color:#000000;overflow:visible;fill:#625b49;fill-opacity:1;fill-rule:evenodd;stroke:none;stroke-width:1.28702748;stroke-miterlimit:10;stroke-opacity:1;marker:none" /><path
       id="path1186"
       overflow="visible"
       d="m 97.204145,28.671823 c 8.673155,1.734784 13.089975,0.126257 15.674965,-1.869665 -0.68264,-0.881614 -1.84856,-1.848558 -1.84856,-1.848558 0,0 3.02876,0.841588 4.09532,2.218192 1.06335,1.372744 0.39474,2.21845 0.11648,3.974856 -0.61957,-1.542631 -1.7761,-2.121021 -1.9326,-2.734033 -2.32476,3.213579 -8.11664,3.080115 -16.105605,0.259208 z"
       style="color:#000000;overflow:visible;fill:#000000;fill-opacity:1;fill-rule:evenodd;stroke:none;stroke-width:1.28702748;stroke-opacity:1;marker:none" /><path
       id="path1190"
       stroke-miterlimit="10"
       overflow="visible"
       d="m 99.743529,17.512113 a 5.23292,5.23292 0 1 1 -10.46584,0 5.23292,5.23292 0 1 1 10.46584,0 z"
       style="color:#000000;overflow:visible;fill:#ffffff;fill-opacity:1;fill-rule:evenodd;stroke:none;stroke-width:1.28701544;stroke-miterlimit:10;marker:none" /><path
       id="path1192"
       stroke-miterlimit="10"
       overflow="visible"
       d="m 89.765088,19.161931 a 8.6237393,6.1240597 54.192 1 1 -9.933005,7.166018 8.6237393,6.1240597 54.192 1 1 9.933005,-7.166018 z"
       style="color:#000000;overflow:visible;fill:#000000;fill-opacity:1;fill-rule:evenodd;stroke:none;stroke-width:1.41400588;stroke-miterlimit:10;marker:none" /><path
       id="path1194"
       stroke-miterlimit="10"
       overflow="visible"
       d="m 98.253587,18.287442 a 2.519485,2.519485 0 1 1 -5.03897,0 2.519485,2.519485 0 1 1 5.03897,0 z"
       style="color:#000000;overflow:visible;fill:#2e3436;fill-rule:evenodd;stroke:#000000;stroke-width:1.28702748;stroke-miterlimit:10;marker:none" /><path
       id="path1198"
       overflow="visible"
       d="m 84.457296,19.900988 c 0.02296,3.667573 -4.573247,3.667573 -4.550286,0 -0.02296,-3.667573 4.573247,-3.667573 4.550286,0 z"
       style="color:#000000;overflow:visible;fill:#ffffff;fill-rule:evenodd;stroke-width:1.28702748;marker:none" /><path
       id="path1200"
       stroke-miterlimit="10"
       overflow="visible"
       d="m 111.46042,18.080873 a 6.142984,6.142984 0 1 1 -12.285968,0 6.142984,6.142984 0 1 1 12.285968,0 z"
       style="color:#000000;overflow:visible;fill:#ffffff;fill-rule:evenodd;stroke:none;stroke-width:1.28709185;stroke-miterlimit:10;marker:none" /><path
       id="path1202"
       stroke-miterlimit="10"
       overflow="visible"
       d="m 109.71174,18.99106 a 2.957785,2.957785 0 1 1 -5.91557,0 2.95772,2.95772 0 1 1 5.91544,0 z"
       style="color:#000000;overflow:visible;fill:#2e3436;fill-rule:evenodd;stroke:#000000;stroke-width:1.28702748;stroke-miterlimit:10;marker:none" /><path
       id="path1204"
       overflow="visible"
       d="m 107.66408,17.62591 a 2.047665,2.047665 0 1 1 -4.09533,0 2.047665,2.047665 0 1 1 4.09533,0 z"
       style="color:#000000;overflow:visible;fill:#ffffff;fill-rule:evenodd;stroke-width:1.28702748;marker:none" /><path
       id="path1206"
       overflow="visible"
       d="m 124.03797,36.426666 1.19231,-2.374369 c -4.43554,-3.245075 -12.61206,-5.60618 -12.61206,-5.60618 -1.4173,-0.660167 -1.86453,0.613092 -0.88315,1.440781 0,0 6.99258,5.012862 12.3029,6.539768 z"
       style="color:#000000;overflow:visible;fill:#6e3d09;fill-opacity:1;stroke:none;stroke-width:1.28700233;stroke-linecap:round;marker:none" /><path
       id="path1208"
       overflow="visible"
       d="m 129.72447,38.615238 0.63827,-1.412971 -4.95192,-3.172402 -0.39479,-0.03365 -0.17076,-0.546486 c -0.71934,0.450491 -1.76463,2.123899 -1.48746,3.06471 l 0.5348,-0.202269 0.28971,0.280011 z"
       style="color:#000000;overflow:visible;fill:#bdbdbd;fill-opacity:1;stroke:none;stroke-width:1.28700233;stroke-linecap:round;marker:none" /><path
       id="path1212"
       overflow="visible"
       d="m 136.92127,44.615595 c -1.54384,-5.24044 -2.09137,-9.401293 -6.12585,-9.031029 -3.25121,0.298414 -3.47883,4.956849 -0.11917,6.242356 3.23644,1.238324 6.24502,2.788673 6.24502,2.788673 z"
       style="color:#000000;overflow:visible;fill:#000000;fill-opacity:1;stroke-width:0.52308661;marker:none" /><path
       id="path1214"
       overflow="visible"
       d="m 131.03688,36.009167 a 1.3534456,1.3534456 0 1 1 0.76488,2.596578 1.3534456,1.3534456 0 1 1 -0.76488,-2.596578 z"
       style="color:#000000;overflow:visible;opacity:0.52780002;fill:#ffffff;stroke-width:1.28702748;marker:none" /><path
       id="path1218"
       overflow="visible"
       d="m 134.98287,41.479878 c 0,0 -0.50279,-1.88126 -1.61263,-2.860327 -0.39266,-0.346422 0.10208,-0.856659 0.47262,-0.408512 0.80032,0.967952 1.14001,3.268839 1.14001,3.268839 z"
       style="color:#000000;overflow:visible;opacity:0.42780002;fill:#878787;fill-opacity:1;stroke-width:0.52308661;marker:none" /><path
       style="color:#000000;overflow:visible;fill:#ffffff;fill-rule:evenodd;stroke-width:1.28702748;marker:none"
       d="m 96.509408,17.124484 c 0,2.325744 -3.488617,2.325744 -3.488617,0 -0.02016,-2.345728 3.508645,-2.345728 3.488488,0 z"
       overflow="visible"
       id="path1312" /></g></g></svg>