<?xml version="1.0" encoding="UTF-8" standalone="no"?>
<svg
   xmlns:dc="http://purl.org/dc/elements/1.1/"
   xmlns:cc="http://creativecommons.org/ns#"
   xmlns:rdf="http://www.w3.org/1999/02/22-rdf-syntax-ns#"
   xmlns:svg="http://www.w3.org/2000/svg"
   xmlns="http://www.w3.org/2000/svg"
   xml:space="preserve"
   style="enable-background:new 0 0 240 234;"
   viewBox="0 0 240 234"
   y="0px"
   x="0px"
   id="Layer_1"
   version="1.1"><metadata
   id="metadata1175"><rdf:RDF><cc:Work
       rdf:about=""><dc:format>image/svg+xml</dc:format><dc:type
         rdf:resource="http://purl.org/dc/dcmitype/StillImage" /><dc:title></dc:title></cc:Work></rdf:RDF></metadata><defs
   id="defs1173">
		
	
			
		
				
			
		
	
			
			
		</defs>
<style
   id="style1156"
   type="text/css">
	.st0{fill:#330000;}
	.st1{fill:#FF9A00;}
</style>
<g
   id="Layer_2_1_">
	<path
   id="path1158"
   d="M 42.5,0 C 19,0 0,19 0,42.5 v 149 C 0,215 19,234 42.5,234 h 155 C 221,234 240,215 240,191.5 V 42.5 C 240,19 221,0 197.5,0 Z M 170,51.900391 c 3.9,0 6.89961,1.2 9.09961,3.5 2.2,2.4 3.40078,5.60039 3.30078,8.90039 0.1,3.4 -1.1,6.699219 -3.5,9.199219 -2.3,2.4 -5.69961,3.7 -9.09961,3.5 -3.3,0.1 -6.50039,-1.2 -8.90039,-3.5 -2.3,-2.5 -3.50039,-5.799219 -3.40039,-9.199219 -0.1,-3.4 1.19961,-6.60039 3.59961,-8.90039 2.4,-2.3 5.60039,-3.5 8.90039,-3.5 z m -85.699219,8 h 0.298828 25.599611 c 0.8,0 1.20078,0.298828 1.30078,0.798828 L 148,163.69922 c 0.3,1.1 0,1.60156 -1,1.60156 h -20.90039 c -0.7,0.1 -1.39961,-0.40156 -1.59961,-1.10156 l -8.19922,-23.79883 H 79.099609 l -7.599609,23.5 c -0.2,0.9 -1.000391,1.50039 -1.900391,1.40039 H 50.800781 c -1.1,0 -1.401562,-0.60078 -1.101562,-1.80078 L 81.900391,70.800781 c 0.3,-1 0.6,-2.100781 1,-3.300781 0.4,-2.1 0.599609,-4.3 0.599609,-6.5 -0.1,-0.5 0.300781,-0.999609 0.800781,-1.099609 z m 13,18.5 c -0.9,4.3 -2.00039,8.60039 -3.40039,12.90039 -1.5,4.8 -2.99961,9.798829 -4.59961,14.798829 -1.4,5.1 -2.90039,9.8 -4.40039,14 h 25.400389 c -0.6,-2.1 -1.40078,-4.59922 -2.30078,-7.19922 -0.9,-2.7 -1.79922,-5.59961 -2.69922,-8.59961 -1,-3.1 -1.90039,-6.101171 -2.90039,-9.201171 -1,-3.1 -1.90117,-6.00039 -2.701171,-8.90039 -0.8,-2.8 -1.499219,-5.398828 -2.199219,-7.798828 z m 62.599609,7 h 19.79883 c 0.9,0 1.30078,0.50039 1.30078,1.40039 v 76.999999 c 0,1.1 -0.40078,1.59961 -1.30078,1.59961 h -19.59961 c -1,0 -1.5,-0.59961 -1.5,-1.59961 V 86.800781 c 0,-1 0.40078,-1.40039 1.30078,-1.40039 z"
   style="fill:#225222;fill-opacity:1" />
	
</g>
</svg>