<?xml version="1.0" encoding="UTF-8" standalone="no"?>
<svg
   xmlns:dc="http://purl.org/dc/elements/1.1/"
   xmlns:cc="http://creativecommons.org/ns#"
   xmlns:rdf="http://www.w3.org/1999/02/22-rdf-syntax-ns#"
   xmlns:svg="http://www.w3.org/2000/svg"
   xmlns="http://www.w3.org/2000/svg"
   xml:space="preserve"
   style="enable-background:new 0 0 240 234;"
   viewBox="0 0 240 234"
   y="0px"
   x="0px"
   id="Layer_1"
   version="1.1"><metadata
   id="metadata1903"><rdf:RDF><cc:Work
       rdf:about=""><dc:format>image/svg+xml</dc:format><dc:type
         rdf:resource="http://purl.org/dc/dcmitype/StillImage" /><dc:title></dc:title></cc:Work></rdf:RDF></metadata><defs
   id="defs1901">
	
	

		
	
			
			
		
		
	
			
		
				
			</defs>
<style
   id="style1884"
   type="text/css">
	.st0{fill:#001E36;}
	.st1{fill:#31A8FF;}
</style>
<path
   id="path1886"
   d="M 42.5 0 C 19 0 0 19 0 42.5 L 0 191.5 C 0 215 19 234 42.5 234 L 197.5 234 C 221 234 240 215 240 191.5 L 240 42.5 C 240 19 221 0 197.5 0 L 42.5 0 z M 86 59.5 C 94.2 59.5 100.99961 60.499609 106.59961 62.599609 C 111.59961 64.299609 116.2 67.100781 120 70.800781 C 123.2 74.000781 125.70078 77.899219 127.30078 82.199219 C 128.80078 86.399219 129.59961 90.699219 129.59961 95.199219 C 129.59961 103.79922 127.59961 110.9 123.59961 116.5 C 119.59961 122.1 114 126.29922 107.5 128.69922 C 100.7 131.19922 93.2 132.09961 85 132.09961 C 82.6 132.09961 81 132.1 80 132 C 79 131.9 77.599219 131.90039 75.699219 131.90039 L 75.699219 164 C 75.799219 164.7 75.299609 165.30039 74.599609 165.40039 L 74.199219 165.40039 L 55.199219 165.40039 C 54.399219 165.40039 54 164.99961 54 164.09961 L 54 61.199219 C 54 60.499219 54.3 60.099609 55 60.099609 C 56.7 60.099609 58.299609 60.1 60.599609 60 C 62.999609 59.9 65.499219 59.900781 68.199219 59.800781 C 70.899219 59.700781 73.800391 59.699609 76.900391 59.599609 C 80.000391 59.499609 83 59.5 86 59.5 z M 88.232422 79.195312 C 87.723438 79.185547 87.211719 79.186719 86.699219 79.199219 C 84.099219 79.199219 81.800391 79.200781 79.900391 79.300781 C 77.900391 79.200781 76.500781 79.300391 75.800781 79.400391 L 75.800781 113 C 77.200781 113.1 78.499219 113.19922 79.699219 113.19922 L 85 113.19922 C 88.9 113.19922 92.8 112.60039 96.5 111.40039 C 99.7 110.50039 102.49922 108.59961 104.69922 106.09961 C 106.79922 103.59961 107.80078 100.20078 107.80078 95.800781 C 107.90078 92.700781 107.1 89.600391 105.5 86.900391 C 103.8 84.300391 101.4 82.299219 98.5 81.199219 C 95.2625 79.886719 91.795312 79.263672 88.232422 79.195312 z M 172.09961 84.300781 C 176.19961 84.300781 180.4 84.599219 184.5 85.199219 C 187.5 85.599219 190.39961 86.4 193.09961 87.5 C 193.49961 87.6 193.89961 88.000391 194.09961 88.400391 C 194.19961 88.800391 194.30078 89.199609 194.30078 89.599609 L 194.30078 105.90039 C 194.30078 106.30039 194.10078 106.70039 193.80078 106.90039 C 192.90078 107.10039 192.4 107.10039 192 106.90039 C 189 105.30039 185.80039 104.2 182.40039 103.5 C 178.70039 102.7 174.99922 102.19922 171.19922 102.19922 C 169.19922 102.09922 167.09922 102.40039 165.19922 102.90039 C 163.89922 103.20039 162.79961 103.90039 162.09961 104.90039 C 161.59961 105.70039 161.30078 106.69961 161.30078 107.59961 C 161.30078 108.49961 161.70078 109.39922 162.30078 110.19922 C 163.20078 111.29922 164.39922 112.20039 165.69922 112.90039 C 167.99922 114.10039 170.40078 115.19922 172.80078 116.19922 C 178.20078 117.99922 183.39922 120.5 188.19922 123.5 C 191.49922 125.6 194.19961 128.40078 196.09961 131.80078 C 197.69961 135.00078 198.50039 138.49961 198.40039 142.09961 C 198.50039 146.79961 197.1 151.50039 194.5 155.40039 C 191.7 159.40039 187.80078 162.50078 183.30078 164.30078 C 178.40078 166.40078 172.39922 167.5 165.19922 167.5 C 160.59922 167.5 156.09961 167.09922 151.59961 166.19922 C 148.09961 165.59922 144.60039 164.5 141.40039 163 C 140.70039 162.6 140.20078 161.89961 140.30078 161.09961 L 140.30078 143.69922 C 140.30078 143.39922 140.39922 143.00078 140.69922 142.80078 C 140.99922 142.60078 141.29961 142.70039 141.59961 142.90039 C 145.49961 145.20039 149.6 146.80078 154 147.80078 C 157.8 148.80078 161.80078 149.30078 165.80078 149.30078 C 169.60078 149.30078 172.29961 148.80039 174.09961 147.90039 C 175.69961 147.20039 176.80078 145.49922 176.80078 143.69922 C 176.80078 142.29922 176.00039 140.99922 174.40039 139.69922 C 172.80039 138.39922 169.49961 136.9 164.59961 135 C 159.49961 133.2 154.80039 130.80078 150.40039 127.80078 C 147.30039 125.60078 144.70078 122.70078 142.80078 119.30078 C 141.20078 116.10078 140.4 112.59961 140.5 109.09961 C 140.5 104.79961 141.70039 100.7 143.90039 97 C 146.40039 93 150.10039 89.800781 154.40039 87.800781 C 159.10039 85.400781 164.99961 84.300781 172.09961 84.300781 z "
   style="fill:#225222;fill-opacity:1" />
</svg>