<?xml version="1.0" encoding="UTF-8" standalone="no"?>
<svg
   xmlns:dc="http://purl.org/dc/elements/1.1/"
   xmlns:cc="http://creativecommons.org/ns#"
   xmlns:rdf="http://www.w3.org/1999/02/22-rdf-syntax-ns#"
   xmlns:svg="http://www.w3.org/2000/svg"
   xmlns="http://www.w3.org/2000/svg"
   height="50"
   width="50"
   viewBox="-204.79995 -341.33325 73.955537 127.99997"
   version="1.1"
   id="svg6">
  <metadata
     id="metadata12">
    <rdf:RDF>
      <cc:Work
         rdf:about="">
        <dc:format>image/svg+xml</dc:format>
        <dc:type
           rdf:resource="http://purl.org/dc/dcmitype/StillImage" />
        <dc:title></dc:title>
      </cc:Work>
    </rdf:RDF>
  </metadata>
  <defs
     id="defs10" />
  <rect
     ry="21.906034"
     rx="21.906034"
     y="-341.33325"
     x="-231.82217"
     height="127.99997"
     width="127.99997"
     id="rect841"
     style="fill:#1877f2;stroke-width:2.90267;fill-opacity:1" />
  <path
     transform="matrix(2.5599994,0,0,2.5599994,-231.82217,-341.33325)"
     d="M 30.619141 9.6894531 C 24.822628 9.6894531 21.035156 13.202526 21.035156 19.5625 L 21.035156 25.154297 L 14.591797 25.154297 L 14.591797 32.490234 L 21.035156 32.490234 L 21.035156 50 L 28.964844 50 L 28.964844 32.490234 L 34.878906 32.490234 L 36.003906 25.154297 L 28.964844 25.154297 L 28.964844 20.394531 C 28.964844 18.387742 29.949198 16.431641 33.101562 16.431641 L 36.300781 16.431641 L 36.300781 10.185547 C 36.300781 10.185547 33.395544 9.6894531 30.619141 9.6894531 z "
     style="fill:#ffffff;fill-opacity:1;stroke-width:1.13386"
     id="rect847" />
</svg>
