<?xml version="1.0" encoding="UTF-8" standalone="no"?>
<svg
   xmlns:dc="http://purl.org/dc/elements/1.1/"
   xmlns:cc="http://creativecommons.org/ns#"
   xmlns:rdf="http://www.w3.org/1999/02/22-rdf-syntax-ns#"
   xmlns:svg="http://www.w3.org/2000/svg"
   xmlns="http://www.w3.org/2000/svg"
   id="svg6"
   version="1.1"
   viewBox="-204.79995 -341.33325 73.955537 127.99997"
   width="50"
   height="50">
  <metadata
     id="metadata12">
    <rdf:RDF>
      <cc:Work
         rdf:about="">
        <dc:format>image/svg+xml</dc:format>
        <dc:type
           rdf:resource="http://purl.org/dc/dcmitype/StillImage" />
        <dc:title></dc:title>
      </cc:Work>
    </rdf:RDF>
  </metadata>
  <defs
     id="defs10" />
  <g
     transform="matrix(0.09516129,0,0,0.09516129,-232.7856,-341.90213)"
     id="g21">
    <circle
       style="fill:#1877f2;fill-opacity:1;stroke:none;stroke-width:0.24645959;stroke-miterlimit:4;stroke-dasharray:none;stroke-opacity:0.35955057"
       id="path14"
       cx="682.6665"
       cy="678.52002"
       r="672.54224" />
    <path
       style="fill:#ffffff;fill-opacity:1;stroke:none;stroke-width:0.0962733;stroke-miterlimit:4;stroke-dasharray:none;stroke-opacity:0.35955057"
       d="m 659.05664,237.5 c -60.91251,0 -100.72266,36.91639 -100.72266,103.75 V 400 H 490.625 v 77.08398 h 67.70898 V 657.44531 A 262.71188,262.71188 0 0 0 600,661.0918 262.71188,262.71188 0 0 0 641.66602,657.63281 V 477.08398 h 62.13671 L 715.625,400 h -73.95898 v -50.02344 c 0,-21.08828 10.33241,-41.64258 43.45898,-41.64258 h 33.625 v -65.625 c 0,0 -30.51757,-5.20898 -59.69336,-5.20898 z"
       id="circle16"
       transform="matrix(2.5599994,0,0,2.5599994,-853.33312,-341.33325)" />
  </g>
</svg>
