<?xml version="1.0" encoding="UTF-8" standalone="no"?>
<svg
   xmlns:dc="http://purl.org/dc/elements/1.1/"
   xmlns:cc="http://creativecommons.org/ns#"
   xmlns:rdf="http://www.w3.org/1999/02/22-rdf-syntax-ns#"
   xmlns:svg="http://www.w3.org/2000/svg"
   xmlns="http://www.w3.org/2000/svg"
   xmlns:sodipodi="http://sodipodi.sourceforge.net/DTD/sodipodi-0.dtd"
   xmlns:inkscape="http://www.inkscape.org/namespaces/inkscape"
   version="1.1"
   id="svg2"
   width="100"
   height="100"
   viewBox="0 0 100 100"
   sodipodi:docname="facebook.svg"
   inkscape:version="1.0 (4035a4fb49, 2020-05-01)">
  <metadata
     id="metadata8">
    <rdf:RDF>
      <cc:Work
         rdf:about="">
        <dc:format>image/svg+xml</dc:format>
        <dc:type
           rdf:resource="http://purl.org/dc/dcmitype/StillImage" />
        <dc:title />
      </cc:Work>
    </rdf:RDF>
  </metadata>
  <defs
     id="defs6" />
  <sodipodi:namedview
     pagecolor="#ffffff"
     bordercolor="#666666"
     borderopacity="1"
     objecttolerance="10"
     gridtolerance="10"
     guidetolerance="10"
     inkscape:pageopacity="0"
     inkscape:pageshadow="2"
     inkscape:window-width="1366"
     inkscape:window-height="745"
     id="namedview4"
     showgrid="false"
     inkscape:snap-intersection-paths="true"
     showguides="true"
     inkscape:guide-bbox="true"
     inkscape:zoom="5.55"
     inkscape:cx="50"
     inkscape:cy="50"
     inkscape:window-x="-8"
     inkscape:window-y="-8"
     inkscape:window-maximized="1"
     inkscape:current-layer="svg2"
     inkscape:snap-global="false"
     inkscape:document-rotation="0" />
  <path
     style="fill:#2c5b2c;fill-opacity:1;stroke:none;stroke-width:1.09135;stroke-miterlimit:4;stroke-dasharray:none;stroke-opacity:1"
     d="M 44.225386,0 A 50.00001,50.40006 0 0 0 0,50.000035 50.00001,50.40006 0 0 0 44.034857,100 h 9.285518 v -3.7111 h 0.0042 V 61.574705 H 39.878808 V 45.974163 H 53.324595 V 34.273625 h 0.05703 c 0.82089,-15.710179 10.909585,-19.176216 21.80856,-19.170085 3.095755,0.0017 6.2568,0.283593 9.28934,0.644394 v 13.833758 c -8.4231,-0.513234 -14.80884,-0.94594 -15.0856,4.691933 v 11.700538 h 14.97622 L 82.18392,61.574705 H 69.393925 V 96.2889 h 0.01444 v 0.10384 A 50.00001,50.40006 0 0 0 100,50.000035 50.00001,50.40006 0 0 0 55.964715,0 Z"
     id="rect824-3"
     inkscape:connector-curvature="0" />
</svg>
