<?xml version="1.0" encoding="UTF-8" standalone="no"?>
<svg
   xmlns:dc="http://purl.org/dc/elements/1.1/"
   xmlns:cc="http://creativecommons.org/ns#"
   xmlns:rdf="http://www.w3.org/1999/02/22-rdf-syntax-ns#"
   xmlns:svg="http://www.w3.org/2000/svg"
   xmlns="http://www.w3.org/2000/svg"
   xmlns:xlink="http://www.w3.org/1999/xlink"
   id="svg6"
   version="1.1"
   viewBox="-204.79995 -341.33325 73.955537 127.99997"
   width="50"
   height="50">
  <metadata
     id="metadata12">
    <rdf:RDF>
      <cc:Work
         rdf:about="">
        <dc:format>image/svg+xml</dc:format>
        <dc:type
           rdf:resource="http://purl.org/dc/dcmitype/StillImage" />
        <dc:title></dc:title>
      </cc:Work>
    </rdf:RDF>
  </metadata>
  <defs
     id="defs10">
    <linearGradient
       xlink:href="#a"
       id="d"
       x1="-37.631199"
       y1="-37.545502"
       x2="11.3667"
       y2="11.412"
       gradientTransform="scale(1.00041,0.99959)"
       gradientUnits="userSpaceOnUse" />
    <linearGradient
       x1="-5.8092999"
       y1="-5.8041"
       x2="1.7537"
       y2="1.7526"
       id="a">
      <stop
         id="stop2"
         stop-color="#FFD521"
         offset="0%" />
      <stop
         id="stop4"
         stop-color="#FFD521"
         offset="5%" />
      <stop
         id="stop6"
         stop-color="#F50000"
         offset="50.1119%" />
      <stop
         id="stop8"
         stop-color="#B900B4"
         offset="95%" />
      <stop
         id="stop10"
         stop-color="#B900B4"
         offset="95.0079%" />
      <stop
         id="stop12"
         stop-color="#B900B4"
         offset="100%" />
    </linearGradient>
    <linearGradient
       xlink:href="#b"
       id="e"
       x1="0.4867"
       y1="0.53600001"
       x2="49.5047"
       y2="49.554001"
       gradientUnits="userSpaceOnUse" />
    <linearGradient
       x1="0.0089999996"
       y1="0.0091000004"
       x2="0.91750002"
       y2="0.91750002"
       id="b">
      <stop
         id="stop15"
         stop-color="#FFD521"
         offset="0%" />
      <stop
         id="stop17"
         stop-color="#FFD521"
         offset="5%" />
      <stop
         id="stop19"
         stop-color="#F50000"
         offset="50.1119%" />
      <stop
         id="stop21"
         stop-color="#B900B4"
         offset="95%" />
      <stop
         id="stop23"
         stop-color="#B900B4"
         offset="95.0079%" />
      <stop
         id="stop25"
         stop-color="#B900B4"
         offset="100%" />
    </linearGradient>
    <linearGradient
       xlink:href="#c"
       id="f"
       x1="-12.5688"
       y1="-12.5305"
       x2="36.431499"
       y2="36.481602"
       gradientTransform="scale(0.99988,1.00012)"
       gradientUnits="userSpaceOnUse" />
    <linearGradient
       x1="-0.4558"
       y1="-0.456"
       x2="1.3126"
       y2="1.3128"
       id="c">
      <stop
         id="stop28"
         stop-color="#FFD521"
         offset="0%" />
      <stop
         id="stop30"
         stop-color="#FFD521"
         offset="5%" />
      <stop
         id="stop32"
         stop-color="#F50000"
         offset="50.1119%" />
      <stop
         id="stop34"
         stop-color="#B900B4"
         offset="95%" />
      <stop
         id="stop36"
         stop-color="#B900B4"
         offset="95.0079%" />
      <stop
         id="stop38"
         stop-color="#B900B4"
         offset="100%" />
    </linearGradient>
    <radialGradient
       fy="578.088"
       fx="158.429"
       gradientTransform="matrix(0,-1.98198,1.8439,0,-1031.399,454.004)"
       gradientUnits="userSpaceOnUse"
       xlink:href="#a-5"
       r="65"
       cy="578.088"
       cx="158.429"
       id="c-3" />
    <radialGradient
       fy="473.455"
       fx="147.694"
       gradientTransform="matrix(0.17394,0.86872,-3.5818,0.71718,1648.351,-458.493)"
       gradientUnits="userSpaceOnUse"
       xlink:href="#b-7"
       r="65"
       cy="473.455"
       cx="147.694"
       id="d-6" />
    <linearGradient
       id="b-7">
      <stop
         stop-color="#3771c8"
         offset="0"
         id="stop204" />
      <stop
         offset=".128"
         stop-color="#3771c8"
         id="stop206" />
      <stop
         stop-opacity="0"
         stop-color="#60f"
         offset="1"
         id="stop208" />
    </linearGradient>
    <linearGradient
       id="a-5">
      <stop
         stop-color="#fd5"
         offset="0"
         id="stop211" />
      <stop
         stop-color="#fd5"
         offset=".1"
         id="stop213" />
      <stop
         stop-color="#ff543e"
         offset=".5"
         id="stop215" />
      <stop
         stop-color="#c837ab"
         offset="1"
         id="stop217" />
    </linearGradient>
  </defs>
  <path
     id="rect175"
     d="m -203.90718,-323.69825 c -2.66746,0.13719 -5.25306,1.24228 -7.21999,3.21 -3.1471,3.14834 -4.0892,7.8826 -2.385,11.99499 1.7041,4.11241 5.71849,6.79576 10.16999,6.795 6.0785,-10e-4 11,-4.93136 11,-11.01 -8e-4,-4.45165 -2.6821,-8.46225 -6.795,-10.16499 -1.54234,-0.63853 -3.16952,-0.90732 -4.77,-0.825 z m 58.38999,28.82999 c -7.3485,-0.27278 -14.2525,3.51714 -17.965,9.865 h -0.255 v -8.345 h -18.20499 v 61.07999 h 18.96499 v -30.22 c 0,-7.96779 1.507,-15.68499 11.385,-15.68499 9.7376,0 9.865,9.12229 9.865,16.20499 v 29.7 h 18.96499 l 0.01,-33.505 c 0,-16.44926 -3.54259,-29.09499 -22.76499,-29.09499 z m -67.32998,1.52 v 61.07999 h 18.98499 v -61.07999 z"
     style="fill:#ffffff;fill-opacity:1;stroke:none;stroke-width:0.25370806;stroke-miterlimit:4;stroke-dasharray:none;stroke-opacity:0.35955057" />
  <g
     transform="matrix(0.98443005,0,0,0.98469847,-231.82173,-341.33325)"
     id="g248">
    <path
       d="M 65.033,0 C 37.891,0 29.953,0.028 28.41,0.156 c -5.57,0.463 -9.036,1.34 -12.812,3.22 -2.91,1.445 -5.205,3.12 -7.47,5.468 -4.125,4.282 -6.625,9.55 -7.53,15.812 -0.44,3.04 -0.568,3.66 -0.594,19.188 -0.01,5.176 0,11.988 0,21.125 0,27.12 0.03,35.05 0.16,36.59 0.45,5.42 1.3,8.83 3.1,12.56 3.44,7.14 10.01,12.5 17.75,14.5 2.68,0.69 5.64,1.07 9.44,1.25 1.61,0.07 18.02,0.12 34.44,0.12 16.42,0 32.84,-0.02 34.41,-0.1 4.4,-0.207 6.955,-0.55 9.78,-1.28 a 27.22,27.22 0 0 0 17.75,-14.53 c 1.765,-3.64 2.66,-7.18 3.065,-12.317 0.088,-1.12 0.125,-18.977 0.125,-36.81 0,-17.836 -0.04,-35.66 -0.128,-36.78 -0.41,-5.22 -1.305,-8.73 -3.127,-12.44 -1.495,-3.037 -3.155,-5.305 -5.565,-7.624 C 116.904,4 111.644,1.5 105.375,0.596 102.338,0.157 101.733,0.027 86.193,0 Z"
       id="path222"
       style="fill:url(#c-3)" />
    <path
       d="M 65.033,0 C 37.891,0 29.953,0.028 28.41,0.156 c -5.57,0.463 -9.036,1.34 -12.812,3.22 -2.91,1.445 -5.205,3.12 -7.47,5.468 -4.125,4.282 -6.625,9.55 -7.53,15.812 -0.44,3.04 -0.568,3.66 -0.594,19.188 -0.01,5.176 0,11.988 0,21.125 0,27.12 0.03,35.05 0.16,36.59 0.45,5.42 1.3,8.83 3.1,12.56 3.44,7.14 10.01,12.5 17.75,14.5 2.68,0.69 5.64,1.07 9.44,1.25 1.61,0.07 18.02,0.12 34.44,0.12 16.42,0 32.84,-0.02 34.41,-0.1 4.4,-0.207 6.955,-0.55 9.78,-1.28 a 27.22,27.22 0 0 0 17.75,-14.53 c 1.765,-3.64 2.66,-7.18 3.065,-12.317 0.088,-1.12 0.125,-18.977 0.125,-36.81 0,-17.836 -0.04,-35.66 -0.128,-36.78 -0.41,-5.22 -1.305,-8.73 -3.127,-12.44 -1.495,-3.037 -3.155,-5.305 -5.565,-7.624 C 116.904,4 111.644,1.5 105.375,0.596 102.338,0.157 101.733,0.027 86.193,0 Z"
       id="path224"
       style="fill:url(#d-6)" />
    <path
       style="fill:#ffffff"
       d="m 65.003,17 c -13.036,0 -14.672,0.057 -19.792,0.29 -5.11,0.234 -8.598,1.043 -11.65,2.23 -3.157,1.226 -5.835,2.866 -8.503,5.535 -2.67,2.668 -4.31,5.346 -5.54,8.502 -1.19,3.053 -2,6.542 -2.23,11.65 C 17.06,50.327 17,51.964 17,65 c 0,13.036 0.058,14.667 0.29,19.787 0.235,5.11 1.044,8.598 2.23,11.65 1.227,3.157 2.867,5.835 5.536,8.503 2.667,2.67 5.345,4.314 8.5,5.54 3.054,1.187 6.543,1.996 11.652,2.23 5.12,0.233 6.755,0.29 19.79,0.29 13.037,0 14.668,-0.057 19.788,-0.29 5.11,-0.234 8.602,-1.043 11.656,-2.23 3.156,-1.226 5.83,-2.87 8.497,-5.54 2.67,-2.668 4.31,-5.346 5.54,-8.502 1.18,-3.053 1.99,-6.542 2.23,-11.65 0.23,-5.12 0.29,-6.752 0.29,-19.788 0,-13.036 -0.06,-14.672 -0.29,-19.792 -0.24,-5.11 -1.05,-8.598 -2.23,-11.65 -1.23,-3.157 -2.87,-5.835 -5.54,-8.503 -2.67,-2.67 -5.34,-4.31 -8.5,-5.535 -3.06,-1.187 -6.55,-1.996 -11.66,-2.23 C 79.659,17.057 78.029,17 64.989,17 Z m -4.306,8.65 c 1.278,-0.002 2.704,0 4.306,0 12.816,0 14.335,0.046 19.396,0.276 4.68,0.214 7.22,0.996 8.912,1.653 2.24,0.87 3.837,1.91 5.516,3.59 1.68,1.68 2.72,3.28 3.592,5.52 0.657,1.69 1.44,4.23 1.653,8.91 0.23,5.06 0.28,6.58 0.28,19.39 0,12.81 -0.05,14.33 -0.28,19.39 -0.214,4.68 -0.996,7.22 -1.653,8.91 -0.87,2.24 -1.912,3.835 -3.592,5.514 -1.68,1.68 -3.275,2.72 -5.516,3.59 -1.69,0.66 -4.232,1.44 -8.912,1.654 -5.06,0.23 -6.58,0.28 -19.396,0.28 -12.817,0 -14.336,-0.05 -19.396,-0.28 -4.68,-0.216 -7.22,-0.998 -8.913,-1.655 -2.24,-0.87 -3.84,-1.91 -5.52,-3.59 -1.68,-1.68 -2.72,-3.276 -3.592,-5.517 -0.657,-1.69 -1.44,-4.23 -1.653,-8.91 -0.23,-5.06 -0.276,-6.58 -0.276,-19.398 0,-12.818 0.046,-14.33 0.276,-19.39 0.214,-4.68 0.996,-7.22 1.653,-8.912 0.87,-2.24 1.912,-3.84 3.592,-5.52 1.68,-1.68 3.28,-2.72 5.52,-3.592 1.692,-0.66 4.233,-1.44 8.913,-1.655 4.428,-0.2 6.144,-0.26 15.09,-0.27 z m 29.928,7.97 a 5.76,5.76 0 1 0 5.76,5.758 c 0,-3.18 -2.58,-5.76 -5.76,-5.76 z m -25.622,6.73 c -13.613,0 -24.65,11.037 -24.65,24.65 0,13.613 11.037,24.645 24.65,24.645 C 78.616,89.645 89.65,78.613 89.65,65 89.65,51.387 78.615,40.35 65.002,40.35 Z m 0,8.65 c 8.836,0 16,7.163 16,16 0,8.836 -7.164,16 -16,16 -8.837,0 -16,-7.164 -16,-16 0,-8.837 7.163,-16 16,-16 z"
       id="path226" />
  </g>
</svg>
