<?xml version="1.0" encoding="UTF-8" standalone="no"?>
<svg
   xmlns:dc="http://purl.org/dc/elements/1.1/"
   xmlns:cc="http://creativecommons.org/ns#"
   xmlns:rdf="http://www.w3.org/1999/02/22-rdf-syntax-ns#"
   xmlns:svg="http://www.w3.org/2000/svg"
   xmlns="http://www.w3.org/2000/svg"
   version="1.1"
   id="svg2"
   width="100"
   height="100"
   viewBox="0 0 100 100">
  <metadata
     id="metadata8">
    <rdf:RDF>
      <cc:Work
         rdf:about="">
        <dc:format>image/svg+xml</dc:format>
        <dc:type
           rdf:resource="http://purl.org/dc/dcmitype/StillImage" />
        <dc:title></dc:title>
      </cc:Work>
    </rdf:RDF>
  </metadata>
  <defs
     id="defs6" />
  <path
     id="path832"
     d="M 50 0 A 49.999783 49.999783 0 0 0 0 50 A 49.999783 49.999783 0 0 0 50 100 A 49.999783 49.999783 0 0 0 100 50 A 49.999783 49.999783 0 0 0 50 0 z M 28.064453 17.511719 L 71.935547 17.511719 C 77.781864 17.511719 82.488281 22.218136 82.488281 28.064453 L 82.488281 71.935547 C 82.488281 77.781864 77.781864 82.488281 71.935547 82.488281 L 28.064453 82.488281 C 22.218136 82.488281 17.511719 77.781864 17.511719 71.935547 L 17.511719 28.064453 C 17.511719 22.218136 22.218136 17.511719 28.064453 17.511719 z M 30.875 23.626953 C 26.859911 23.626953 23.626953 26.859911 23.626953 30.875 L 23.626953 69.125 C 23.626953 73.140089 26.859911 76.373047 30.875 76.373047 L 69.125 76.373047 C 73.140089 76.373047 76.373047 73.140089 76.373047 69.125 L 76.373047 30.875 C 76.373047 26.859911 73.140089 23.626953 69.125 23.626953 L 30.875 23.626953 z M 67.798828 28.634766 A 3.5673866 3.5673866 0 0 1 71.365234 32.201172 A 3.5673866 3.5673866 0 0 1 67.798828 35.769531 A 3.5673866 3.5673866 0 0 1 64.230469 32.201172 A 3.5673866 3.5673866 0 0 1 67.798828 28.634766 z M 50 30.634766 A 19.365808 19.365808 0 0 1 69.365234 50 A 19.365808 19.365808 0 0 1 50 69.365234 A 19.365808 19.365808 0 0 1 30.634766 50 A 19.365808 19.365808 0 0 1 50 30.634766 z M 50 35.984375 A 14.01473 14.01473 0 0 0 35.984375 50 A 14.01473 14.01473 0 0 0 50 64.015625 A 14.01473 14.01473 0 0 0 64.015625 50 A 14.01473 14.01473 0 0 0 50 35.984375 z "
     style="opacity:1;fill:#2c5b2c;fill-opacity:1;stroke:none;stroke-width:0.18338437;stroke-miterlimit:4;stroke-dasharray:none;stroke-opacity:0.38505752" />
</svg>
