<?xml version="1.0" encoding="UTF-8" standalone="no"?>
<svg
   xmlns:dc="http://purl.org/dc/elements/1.1/"
   xmlns:cc="http://creativecommons.org/ns#"
   xmlns:rdf="http://www.w3.org/1999/02/22-rdf-syntax-ns#"
   xmlns:svg="http://www.w3.org/2000/svg"
   xmlns="http://www.w3.org/2000/svg"
   xmlns:sodipodi="http://sodipodi.sourceforge.net/DTD/sodipodi-0.dtd"
   xmlns:inkscape="http://www.inkscape.org/namespaces/inkscape"
   version="1.1"
   id="svg2"
   width="100"
   height="100"
   viewBox="0 0 100 100"
   sodipodi:docname="linkedin.svg"
   inkscape:version="1.0 (4035a4fb49, 2020-05-01)">
  <metadata
     id="metadata8">
    <rdf:RDF>
      <cc:Work
         rdf:about="">
        <dc:format>image/svg+xml</dc:format>
        <dc:type
           rdf:resource="http://purl.org/dc/dcmitype/StillImage" />
        <dc:title />
      </cc:Work>
    </rdf:RDF>
  </metadata>
  <defs
     id="defs6" />
  <sodipodi:namedview
     pagecolor="#ffffff"
     bordercolor="#666666"
     borderopacity="1"
     objecttolerance="10"
     gridtolerance="10"
     guidetolerance="10"
     inkscape:pageopacity="0"
     inkscape:pageshadow="2"
     inkscape:window-width="1366"
     inkscape:window-height="745"
     id="namedview4"
     showgrid="false"
     inkscape:snap-intersection-paths="true"
     showguides="true"
     inkscape:guide-bbox="true"
     inkscape:zoom="5.5499997"
     inkscape:cx="50"
     inkscape:cy="49.999879"
     inkscape:window-x="-8"
     inkscape:window-y="-8"
     inkscape:window-maximized="1"
     inkscape:current-layer="svg2"
     inkscape:snap-global="false"
     inkscape:document-rotation="0" />
  <path
     id="path812"
     d="M 49.999998,-1.240146e-4 C 22.387496,-1.240146e-4 0,22.387377 0,49.999879 0,77.612382 22.387496,99.999882 49.999998,99.999882 77.6125,99.999882 100,77.612382 100,49.999879 100,22.387377 77.6125,-1.240146e-4 49.999998,-1.240146e-4 Z M 41.666664,66.666547 H 33.33333 V 41.666544 h 8.333334 z M 37.499997,37.954043 c -2.529167,0 -4.583333,-2.066666 -4.583333,-4.620834 0,-2.549994 2.05,-4.620833 4.583333,-4.620833 2.533333,0 4.583334,2.070839 4.583334,4.620833 0,2.554168 -2.054167,4.620834 -4.583334,4.620834 z m 33.333338,28.712504 h -8.325 V 54.745712 c 0,-7.837498 -8.34167,-7.175 -8.34167,0 V 66.666547 H 45.833331 V 41.666544 h 8.333334 v 4.55417 C 57.8,39.487378 70.833335,38.987376 70.833335,52.670712 Z"
     inkscape:connector-curvature="0"
     style="fill:#2c5b2c;fill-opacity:1;stroke-width:83.3335" />
</svg>
