<?xml version="1.0" encoding="UTF-8" standalone="no"?>
<svg
   xmlns:dc="http://purl.org/dc/elements/1.1/"
   xmlns:cc="http://creativecommons.org/ns#"
   xmlns:rdf="http://www.w3.org/1999/02/22-rdf-syntax-ns#"
   xmlns:svg="http://www.w3.org/2000/svg"
   xmlns="http://www.w3.org/2000/svg"
   xmlns:sodipodi="http://sodipodi.sourceforge.net/DTD/sodipodi-0.dtd"
   xmlns:inkscape="http://www.inkscape.org/namespaces/inkscape"
   inkscape:export-ydpi="96"
   inkscape:export-xdpi="96"
   inkscape:export-filename="C:\Users\vieir\Pictures\Eu-Desenho.png"
   width="297mm"
   height="297mm"
   viewBox="0 0 297 297"
   version="1.1"
   id="svg8"
   inkscape:version="1.0 (4035a4fb49, 2020-05-01)"
   sodipodi:docname="Eu-Desenho.svg">
  <defs
     id="defs2">
    <clipPath
       clipPathUnits="userSpaceOnUse"
       id="clipPath849">
      <rect
         style="fill:none;stroke:#000000;stroke-width:0.499996;stroke-opacity:0.64257"
         id="rect851"
         width="151.19048"
         height="151.19048"
         x="14.211903"
         y="98.273804" />
    </clipPath>
  </defs>
  <sodipodi:namedview
     inkscape:snap-page="true"
     inkscape:snap-global="true"
     id="base"
     pagecolor="#ffffff"
     bordercolor="#666666"
     borderopacity="1.0"
     inkscape:pageopacity="0.0"
     inkscape:pageshadow="2"
     inkscape:zoom="0.35"
     inkscape:cx="327.23947"
     inkscape:cy="513.05927"
     inkscape:document-units="mm"
     inkscape:current-layer="layer2"
     inkscape:document-rotation="0"
     showgrid="false"
     inkscape:window-width="1366"
     inkscape:window-height="745"
     inkscape:window-x="-8"
     inkscape:window-y="-8"
     inkscape:window-maximized="1" />
  <metadata
     id="metadata5">
    <rdf:RDF>
      <cc:Work
         rdf:about="">
        <dc:format>image/svg+xml</dc:format>
        <dc:type
           rdf:resource="http://purl.org/dc/dcmitype/StillImage" />
        <dc:title></dc:title>
      </cc:Work>
    </rdf:RDF>
  </metadata>
  <g
     inkscape:groupmode="layer"
     id="layer2"
     inkscape:label="Desenho"
     style="display:inline">
    <g
       style="stroke-width:0.509121"
       transform="matrix(1.9641692,0,0,1.9641692,-45.696033,-68.301207)"
       id="g1716">
      <rect
         style="fill:#002b22;fill-opacity:1;stroke:none;stroke-width:0.025456;stroke-miterlimit:4;stroke-dasharray:none;stroke-opacity:1"
         id="rect1005"
         width="151.19046"
         height="151.19048"
         x="23.283331"
         y="34.7738" />
      <path
         id="circle1027"
         style="fill:#005544;fill-opacity:1;stroke:none;stroke-width:1.92424;stroke-miterlimit:4;stroke-dasharray:none;stroke-opacity:1"
         d="M 88,131.42773 V 627.9375 a 367.85716,367.85716 0 0 0 119.84375,74.91992 H 470.73047 A 367.85716,367.85716 0 0 0 659.42773,540.46875 V 178.10156 a 367.85716,367.85716 0 0 0 -31.35156,-46.67383 z"
         transform="scale(0.26458333)" />
      <path
         id="circle1025"
         style="fill:#008066;fill-opacity:1;stroke:none;stroke-width:1.92424;stroke-miterlimit:4;stroke-dasharray:none;stroke-opacity:1"
         d="M 88,131.42773 V 545.79297 A 311.42858,311.42858 0 0 0 282.85742,614.28516 311.42858,311.42858 0 0 0 594.28516,302.85742 311.42858,311.42858 0 0 0 542.85547,131.42773 Z"
         transform="scale(0.26458333)" />
      <path
         id="circle1023"
         style="fill:#00aa88;fill-opacity:1;stroke:none;stroke-width:1.92424;stroke-miterlimit:4;stroke-dasharray:none;stroke-opacity:1"
         d="M 88,131.42773 V 469.38477 A 260.71428,260.71428 0 0 0 232.14258,512.85742 260.71428,260.71428 0 0 0 492.85742,252.14258 260.71428,260.71428 0 0 0 463.22656,131.42773 Z"
         transform="scale(0.26458333)" />
      <path
         id="circle1017"
         style="fill:#00d4aa;fill-opacity:1;stroke:none;stroke-width:1.92424;stroke-miterlimit:4;stroke-dasharray:none;stroke-opacity:1"
         d="M 88,131.42773 V 412.44141 A 224.2857,224.2857 0 0 0 195.71484,440 224.2857,224.2857 0 0 0 420,215.71484 224.2857,224.2857 0 0 0 403.55859,131.42773 Z"
         transform="scale(0.26458333)" />
      <path
         id="circle1019"
         style="fill:#00ffcc;fill-opacity:1;stroke:none;stroke-width:1.92424;stroke-miterlimit:4;stroke-dasharray:none;stroke-opacity:1"
         d="m 88,131.42773 v 228.80079 a 192.14285,192.14285 0 0 0 75.57227,15.48632 192.14285,192.14285 0 0 0 192.14257,-192.14257 192.14285,192.14285 0 0 0 -7.21289,-52.14454 z"
         transform="scale(0.26458333)" />
      <path
         id="circle1021"
         style="fill:#2affd5;fill-opacity:1;stroke:none;stroke-width:1.92424;stroke-miterlimit:4;stroke-dasharray:none;stroke-opacity:1"
         d="m 88,131.42773 v 188.92188 a 168.57142,168.57142 0 0 0 52,8.22266 A 168.57142,168.57142 0 0 0 308.57227,160 168.57142,168.57142 0 0 0 306.13086,131.42773 Z"
         transform="scale(0.26458333)" />
      <path
         transform="scale(0.26458333)"
         d="m 202.38477,557.88867 c -40.24662,0.15912 -57.73737,11.70453 -67.74219,16.03906 -7.87091,3.41005 -28.60054,2.59026 -46.785158,23.57227 L 88,702.85742 330.35742,702.5 c -30.95918,-35.24723 -58.76294,-58.21558 -75,-132.5 -21.28697,12.47924 -15.7603,-7.01997 -34.28515,-11.42773 -6.72285,-0.4963 -12.93799,-0.70633 -18.6875,-0.6836 z"
         style="fill:#424d6e;fill-opacity:1;stroke:none;stroke-width:0.509121px;stroke-linecap:butt;stroke-linejoin:miter;stroke-opacity:1"
         id="path975" />
      <path
         style="fill:#fdd7a9;fill-opacity:1;stroke:none;stroke-width:0.134705px;stroke-linecap:butt;stroke-linejoin:miter;stroke-opacity:1"
         d="m 80.982666,133.90203 -17.104691,11.80779 3.590774,14.17411 10.96131,19.46577 2.917398,6.50861 13.097479,0.13629 c -0.0014,-12.59788 -8.720517,-39.49469 -13.46227,-52.09257 z"
         id="path860"
         sodipodi:nodetypes="ccccccc" />
      <path
         style="display:inline;fill:#e5b67f;fill-opacity:1;stroke:none;stroke-width:0.134705px;stroke-linecap:butt;stroke-linejoin:miter;stroke-opacity:1"
         d="m 67.846725,155.15922 4.960937,0.85045 2.362351,-0.85045 3.165552,-2.40959 -1.511906,-4.25224 1.559153,-1.37016 4.535714,-1.37016 -2.315104,-1.65365 -0.992187,-1.93713 c 0,0 -2.362351,0 -2.267858,0 0.09449,0 -8.787947,1.93713 -8.787947,1.93713 l -4.063243,5.48065 0.755951,2.59859 z"
         id="path877" />
      <path
         id="path974"
         d="m 67.846725,153.57171 4.960937,0.85045 2.362351,-0.85045 3.165552,-2.40959 -1.511906,-4.25224 1.559153,-1.37016 4.535714,-1.37016 -2.315104,-1.65365 -0.992187,-1.93713 c 0,0 -2.362351,0 -2.267858,0 0.09449,0 -8.787947,1.93713 -8.787947,1.93713 l -4.063243,5.48065 0.755951,2.59859 z"
         style="display:inline;fill:#b79266;fill-opacity:1;stroke:none;stroke-width:0.134705px;stroke-linecap:butt;stroke-linejoin:miter;stroke-opacity:1" />
      <path
         style="display:inline;fill:#fdd7a9;fill-opacity:1;stroke:none;stroke-width:0.134705px;stroke-linecap:butt;stroke-linejoin:miter;stroke-opacity:1"
         d="m 112.32002,172.65611 2.20497,-0.53454 3.74177,-5.81311 1.40317,-7.21628 0.73499,-7.01582 -0.46772,-5.27858 -0.66818,-1.5368 c -0.55852,-3.27642 0.76144,-7.42251 2.07134,-12.82893 l 2.53906,-2.00452 c -6.19581,0.0787 -10.85459,2.44647 -13.8312,6.88219 0.1833,15.28249 -2.39603,20.50061 2.2718,35.34639 z"
         id="path856"
         sodipodi:nodetypes="ccccccccccc" />
      <path
         style="display:inline;fill:#e5b67f;fill-opacity:1;stroke:none;stroke-width:0.134705px;stroke-linecap:butt;stroke-linejoin:miter;stroke-opacity:1"
         d="m 108.11052,156.0854 1.33635,7.23777 c 4.28317,1.31243 8.4491,1.51105 12.02713,-3.87541 v -4.2978 z"
         id="path912"
         sodipodi:nodetypes="ccccc" />
      <path
         id="path910"
         style="display:inline;fill:#b79266;fill-opacity:1;stroke:none;stroke-width:0.509121px;stroke-linecap:butt;stroke-linejoin:miter;stroke-opacity:1"
         d="m 457.12891,493.80469 c -17.95694,2.60739 -31.79931,11.15443 -41.19922,25.16211 0.47432,39.54601 -3.94033,61.26254 -1.11328,89.0332 13.51928,1.15593 25.64725,-1.9351 37.54492,-7.33203 l 2.71289,-25.89063 -1.76758,-19.95117 -2.52539,-5.80859 c -2.07797,-12.18993 2.72472,-27.58815 7.59766,-47.55664 z"
         transform="scale(0.26458333)" />
      <path
         style="display:inline;fill:#090909;fill-opacity:1;stroke:none;stroke-width:0.134705px;stroke-linecap:butt;stroke-linejoin:miter;stroke-opacity:1"
         d="m 46.869048,147.97768 c 3.499475,-1.61255 2.202004,-3.7023 0.755951,-5.66965 -2.762237,-3.75801 -0.817325,-3.87534 1.154891,-6.74428 2.263216,-3.29226 -3.98195,-6.31061 5.837668,-5.35096 0.156218,-1.51515 1.59133,-2.78669 5.480656,-3.59077 0.421131,-2.56235 2.565105,-3.1041 2.83482,-6.80357 0.345691,-1.48908 1.12954,-2.5327 2.456847,-3.02381 0.656499,-1.19597 1.165965,-2.49696 3.023809,-2.83482 0.472336,-1.01875 1.075263,-1.73278 2.078868,-1.5119 0.96362,0.48687 1.017298,-0.23951 0.377976,-1.88989 1.52417,-0.29502 1.53941,-1.4954 2.267858,-2.26785 l 8.88244,25.09761 -2.107245,10.40321 c -4.006658,6.25435 -6.249665,4.08349 -7.349911,3.14042 -4.335379,-3.71604 -4.813573,-1.37335 -4.417007,-0.004 0.592614,2.04631 0.881997,2.97122 -0.583427,3.88506 -7.434001,4.63584 -0.01032,-3.63506 -20.694194,-2.83482 z"
         id="path839"
         sodipodi:nodetypes="cssccccccccccssscc" />
      <path
         style="display:inline;fill:#090909;fill-opacity:1;stroke:none;stroke-width:0.134705px;stroke-linecap:butt;stroke-linejoin:miter;stroke-opacity:1"
         d="m 123.86321,139.37295 c -0.16182,1.8336 0.14755,1.95919 0.81802,2.54717 7.54889,6.62007 -11.44351,1.24343 -5.56565,4.91206 10.34312,6.45557 -5.40845,0.4992 -0.58155,12.19319 2.06327,4.99861 4.27365,2.52774 8.41367,3.32326 5.45924,1.04901 -1.93626,10.74388 10.48951,2.33386 4.13148,-2.79628 7.4026,14.70132 9.45565,-5.43432 0.21384,-2.09732 6.92476,-3.2795 3.98079,-16.65988 -0.70111,-3.18653 1.7688,-5.85087 1.04082,-8.66866 -0.3111,-1.20418 -2.10441,-1.5024 -1.76834,-2.75661 1.60206,-5.97898 -3.24401,-4.54586 -3.69054,-6.274 -0.56119,-2.17189 -0.38823,-3.95854 0.94355,-5.01864 4.32361,-3.4416 1.52876,-9.59386 -2.51753,-9.87137 -2.05719,-0.14109 0.17864,-7.05684 -4.47873,-11.843698 -1.08053,-1.110578 -4.27281,-0.638105 -5.26038,-2.273184 -0.51954,-0.860182 -0.58056,-2.411302 0.22951,-3.005968 2.06433,-1.515417 4.94267,2.056447 7.48355,1.737251 1.98257,-0.249058 4.19559,-1.10761 5.32246,-2.757692 0.99441,-1.456128 1.3472,-3.683851 0.55747,-5.260394 -0.85881,-1.714431 -4.44188,-1.089505 -4.94449,-2.939966 -1.38987,-5.117084 -4.15592,-3.077356 -4.63136,-5.400742 -0.40923,-1.999797 3.81935,-5.650512 1.83985,-5.840789 -4.37883,-0.420912 -3.88126,-0.373913 -2.28661,-5.061908 0.72377,-2.127743 -1.2863,-6.48236 -3.7647,-6.753305 -4.83819,-0.528924 -6.05492,-5.040482 -6.92625,-0.571092 -0.26112,1.33941 -1.39102,0.710673 -2.40526,0.64266 -2.41888,-0.162206 -0.90745,0.977493 -3.60813,1.469982 -3.58218,0.653237 1.95232,7.017452 2.80633,10.557145 2.26639,9.393736 6.21326,18.667526 6.14719,28.33057 -0.0419,6.12652 -3.01271,11.88549 -4.14267,17.90706 -1.26955,6.76548 -2.35106,13.58109 -2.95618,20.43801 z"
         id="path847"
         sodipodi:nodetypes="ssssssssssssssaaaaasassssssaaas" />
      <path
         style="display:inline;fill:#000000;fill-opacity:1;stroke:none;stroke-width:0.134705px;stroke-linecap:butt;stroke-linejoin:miter;stroke-opacity:1"
         d="m 73.610861,95.911457 c -2.434923,-4.556239 -1.655033,-10.613693 -0.188987,-15.497024 0,0 0.632359,-1.242406 0.188987,-1.378271 -1.332114,-0.408207 0.627144,-1.434083 0.377978,-1.92902 -0.777817,-1.545035 0.703256,-4.802343 3.023809,-6.142115 0.446687,-0.257895 -0.571208,-3.136206 2.83482,-5.102677 0.719424,-0.41536 0.695723,-5.958184 8.787948,-8.126489 0.634233,-0.169942 0.400932,-1.700893 2.740326,-1.700893 2.366756,0 7.026951,-3.081107 14.646578,-1.039434 0.54193,0.145209 2.48697,-1.57628 5.10268,1.039434 0.69711,0.697111 2.5101,-0.121307 5.33891,1.511906 0.62765,0.362372 2.19872,-0.09346 2.88207,2.456844 0.17954,0.670037 1.32911,-0.348216 1.32292,1.6064 -0.003,0.846349 1.54033,-0.500588 1.79538,1.795388 0.2794,2.51513 3.45003,-2.072399 4.20499,4.852268 0.2454,2.250932 3.9215,0.744253 3.9215,8.376898 0,1.49375 0.7367,5.012697 1.88988,4.063244 4.33783,-3.571484 3.42089,5.367045 1.70089,7.087052 -2.43609,2.436103 5.69377,-3.423937 1.88989,10.772322 -0.11088,0.413821 -0.013,1.053298 0.37797,1.228421 2.54688,1.140739 0.30024,2.263529 0.37798,3.401789 0.16692,2.44409 0.58582,4.92948 0.18899,7.34691 -0.37085,2.25919 -1.21764,4.46652 -2.36235,6.44922 -0.44507,0.77088 -2.29799,10.23047 -5.85864,4.06324 0,0 -1.82025,1.4964 -1.00543,2.31122 2.66229,2.6623 4.54989,7.56762 -1.8222,11.24654 -1.54003,0.88914 -1.00051,3.23974 -1.61358,4.30162 -1.21849,2.11049 -1.98394,-4.47373 -3.3073,-6.52009 -2.04354,-3.15999 -4.32528,-6.23174 -7.08705,-8.78795 C 101.98893,112.51833 81.298991,110.29752 73.610861,95.911457 Z"
         id="path929"
         sodipodi:nodetypes="asssssssssssssssssssaasssssaaa" />
      <path
         style="display:inline;fill:#fdd7a9;fill-opacity:1;stroke:none;stroke-width:0.134705px;stroke-linecap:butt;stroke-linejoin:miter;stroke-opacity:1"
         d="m 80.982666,133.90203 c -4.555238,-5.13293 -7.90105,-20.42974 -8.15172,-23.11881 -0.291985,-3.13227 1.357761,-7.98319 1.469982,-10.55715 -1.460108,-7.978329 -0.242945,-8.11149 -0.133635,-9.755338 0.107792,-1.621029 -1.975895,-13.237929 4.543581,-19.777942 6.000867,-6.019771 14.128872,-6.72697 21.515196,-5.879931 12.26496,1.406504 15.54827,4.705449 20.04521,10.824416 4.75316,6.467602 0.0651,10.645285 1.25584,11.999114 0.51522,0.58581 4.40315,6.739461 3.28775,11.38697 1.96369,2.093611 1.96095,4.187221 2.80633,6.280831 3.95186,-10.023916 10.06892,-10.451522 9.08716,0.53454 -0.16409,1.83621 -1.54091,6.32022 -1.99642,10.28988 -0.25075,2.18529 -3.40211,4.40763 -4.8662,4.60704 -1.16311,0.15842 -2.34894,-0.95169 -3.02635,-1.80071 -4.18495,15.07189 -5.84131,13.55632 -15.10073,20.31248 l -10.95805,4.67722 z"
         id="path843"
         sodipodi:nodetypes="cscsssssccssscccc" />
      <path
         id="path872"
         style="display:inline;fill:#b79266;fill-opacity:1;stroke:none;stroke-width:0.0962117;stroke-linecap:butt;stroke-linejoin:miter;stroke-miterlimit:4;stroke-dasharray:none;stroke-opacity:1"
         d="m 476.77734,381.44727 c 0,0 -14.29343,9.66228 -16.0625,31.05273 -0.67594,8.17297 -13.20972,4.26212 -18.92968,15.71484 -4.80014,9.61103 0.20802,21.87061 -7.14258,31.42774 -4.25738,5.53537 -17.44922,11.59375 -17.44922,11.59375 l -3.97852,37.6914 5.18164,19.00391 3.84766,-1.64258 c 34.99623,-25.53509 41.25513,-19.80686 57.07227,-76.77148 2.23368,-15.33763 3.44007,-30.25191 3.03125,-51.51758 -2.49235,-6.17236 -0.27686,-5.4595 -5.57032,-16.55273 z"
         transform="scale(0.26458333)" />
      <path
         sodipodi:nodetypes="csscccsccscccscscccscccccccsccc"
         transform="scale(0.26458333)"
         d="m 311.25977,256.27148 c -4.83163,2.97589 -9.4469,6.57782 -13.76954,10.91407 -24.64053,24.71816 -16.76642,68.62523 -17.17382,74.75195 -0.41314,6.21297 -5.01266,6.71483 0.50586,36.86914 -0.14369,3.29554 -0.96934,7.6152 -1.93555,12.29883 2.3821,-2.70971 4.40195,-3.63185 8.79101,-3.7832 -0.72824,4.7834 3.46958,7.11538 7.14454,5.17773 14.35348,-7.56805 19.01003,-4.98638 36.78515,-16.60742 -0.65563,-11.63845 -0.27752,-18.94692 2.48842,-6.61249 2.12552,-4.26675 4.70255,-8.37473 4.83189,-13.03009 0.1783,-6.41755 -1.83671,-13.43227 -5.71289,-18.39258 -7.21756,-7.67988 -17.89391,-6.50642 -26.76367,-6.8457 -11.71701,-0.32946 -11.95935,4.20661 -19.66601,5.23828 0,0 -2.79808,-7.33122 2.85742,-10.71484 9.09853,-5.44356 -0.81733,-19.08634 21.78515,-28.75 -0.91874,-5.45077 -10.05532,-2.68294 -13.21289,-6.42774 -5.22844,-6.2008 -4.33376,-11.97004 -2.32226,-17.5 4.22038,-9.693 16.73746,-7.73193 17.85742,-15.71484 -0.86109,-0.33971 -1.68821,-0.62535 -2.49023,-0.8711 z m -3.67579,101.17579 c 4.57358,-0.12833 9.78216,1.07047 15.45118,4.33789 -3.10719,0.28565 -5.61344,-0.0786 -7.32032,1.60742 3.38584,1.48107 2.77179,3.07024 4.28516,4.10742 -1.55108,-0.83127 -3.14688,-1.36475 -4.76172,-1.66992 -9.2786,-2.40563 -16.04037,3.12643 -26.48828,7.91992 -0.0453,0.1994 -0.0855,0.39046 -0.12891,0.58594 -0.068,0.0371 -0.16221,0.0933 -0.22851,0.1289 -2.5235,-4.29746 5.47069,-16.63261 19.1914,-17.01757 z m 23.49414,19.59179 c -4.16765,8.38696 -1.36153,9.24104 -4.54687,16.41602 3.07171,-3.91518 5.47327,-8.50275 4.54687,-16.41602 z"
         style="display:inline;fill:#e5b67f;fill-opacity:1;stroke:none;stroke-width:0.509121px;stroke-linecap:butt;stroke-linejoin:miter;stroke-opacity:1"
         id="path980" />
      <path
         id="path853"
         style="fill:#424d6e;fill-opacity:1;stroke:none;stroke-width:0.509121px;stroke-linecap:butt;stroke-linejoin:miter;stroke-opacity:1"
         d="m 202.38477,557.88867 c -40.24662,0.15912 -57.73737,11.70453 -67.74219,16.03906 -7.87091,3.41005 -28.60054,2.59026 -46.785158,23.57227 L 88,702.85742 330.35742,702.5 c -30.95918,-35.24723 -58.76294,-58.21558 -75,-132.5 -21.28697,12.47924 -15.7603,-7.01997 -34.28515,-11.42773 -6.72285,-0.4963 -12.93799,-0.70633 -18.6875,-0.6836 z"
         transform="scale(0.26458333)" />
      <path
         sodipodi:nodetypes="ccssccccccc"
         id="path857"
         d="m 113.01488,171.88467 c 3.40865,-3.03129 4.90683,-8.89679 5.30313,-13.18249 3.94267,5.5977 10.31132,1.01592 12.18221,6.87317 2.00717,6.28393 2.29387,-8.8594 11.90231,2.34057 4.68183,5.45732 0.57474,-10.24731 6.89806,-11.52827 0,0 5.85366,4.14134 14.45759,7.08705 4.21985,0.97207 1.79654,2.98443 6.14212,6.4256 1.68502,2.22124 3.09272,5.82905 4.53571,9.26041 l 0.0378,6.80357 -50.49761,-0.0945 c -6.07445,-5.81246 -9.238,-10.34315 -10.96132,-13.98511 z"
         style="fill:#424d6e;fill-opacity:1;stroke:none;stroke-width:0.134705px;stroke-linecap:butt;stroke-linejoin:miter;stroke-opacity:1" />
      <path
         id="path971"
         style="display:inline;fill:#e5b67f;fill-opacity:1;stroke:none;stroke-width:0.509121px;stroke-linecap:butt;stroke-linejoin:miter;stroke-opacity:1"
         d="m 432.44336,261.91797 -1.86524,0.97461 c -14.01678,36.25336 15.98384,32.83193 8.58594,47.22461 -3.50082,6.8109 -0.0613,16.48909 2.27344,22.98047 1.6543,5.30237 6.59011,13.13779 -5.6875,10.72851 -14.06271,4.9816 -18.36399,-10.74627 -35.78516,-4.27344 -7.01049,2.60476 -7.31516,-6.7919 2.33008,-12.25195 -17.26798,3.11687 -35.11959,3.67558 -39.65039,18.92969 -2.34668,7.9007 5.69446,16.60846 13.89063,20.45508 2.48509,-4.31063 4.34293,-8.76862 12.31445,-12.66993 21.61028,-18.17756 41.58989,0.34287 46.52539,15.69922 0,0 7.52704,3.12929 11.11328,5.05078 5.33257,2.8572 14.23907,3.9851 15.4043,9.59766 3.26706,15.73618 -9.56875,12.37639 -11.11133,23.99024 -1.04731,7.88515 -11.74499,11.24786 -15.15234,18.43554 -4.04508,8.53285 -1.18966,20.21544 -5.55664,27.7793 -7.00714,12.1367 -18.71028,6.84309 -25.75782,13.89062 -9.17847,9.17847 -23.42369,21.46528 -35.35547,6.56446 l -3.2832,-2.27149 -8.33398,4.79688 4.04101,5.05078 c 7.20351,7.66904 14.56137,10.31999 25,11.86914 6.98071,1.2627 -0.14326,10.41489 -2.01953,15.15234 -3.46004,8.73646 -12.04128,5.73336 -21.4668,0.25391 l -11.11132,-8.08203 c -6.74019,-3.75405 -21.97071,-0.75781 -21.97071,-0.75781 l 34.59766,25.75976 27.52734,0.50391 12.87891,-25.25391 9.9082,-7.42969 2.4668,-23.3789 c 0,0 13.19184,-6.05838 17.44922,-11.59375 7.3506,-9.55713 2.34244,-21.81671 7.14258,-31.42774 5.71996,-11.45272 18.25374,-7.54187 18.92968,-15.71484 1.7558,-21.22996 15.81402,-30.88138 16.02539,-31.02539 -1.18121,-2.40448 -2.74277,-4.80841 -4.99804,-7.21289 4.21568,-17.56539 -10.48045,-40.82303 -12.42774,-43.03711 -4.50043,-5.11683 13.21861,-20.90708 -4.74609,-45.35156 -7.21603,-9.81883 -13.61365,-17.7104 -22.125,-23.95508 z"
         transform="scale(0.26458333)" />
      <path
         transform="scale(0.26458333)"
         d="m 414.20703,470.35547 c -7.77606,0.10834 -20.61546,15.5181 -26.05664,49.36719 -19.27665,8.4036 -42.64177,-27.66367 -69.2207,-24.26758 1.50758,0.22452 3.22439,0.64099 5.11523,1.21875 10.32675,1.9901 22.80993,8.86828 35.94531,17.22461 10.52096,6.05038 20.96656,12.64635 29.26563,18.33984 -0.11553,-1.56199 0.28923,-2.73399 1.05273,-3.63672 0.16609,-0.99053 0.48103,-3.02557 0.875,-5.61133 -0.42151,-4.08786 -0.12482,-8.59499 0.68555,-13.19531 1.8353,-13.34555 7.85249,-27.86545 15.44922,-34.16797 3.53327,-3.83842 7.05156,-5.71283 9.875,-4.39062 -0.86792,-0.59999 -1.87546,-0.89634 -2.98633,-0.88086 z"
         style="display:inline;fill:#b79266;fill-opacity:1;stroke:none;stroke-width:0.509121px;stroke-linecap:butt;stroke-linejoin:miter;stroke-opacity:1"
         id="path854" />
      <path
         style="display:inline;fill:#b79266;fill-opacity:1;stroke:none;stroke-width:0.134705px;stroke-linecap:butt;stroke-linejoin:miter;stroke-opacity:1"
         d="m 90.470732,127.48756 -2.328414,-0.36245 c -0.79465,-0.0225 -1.829426,0.23522 -1.545604,-1.04546 1.187236,-0.0497 1.33626,-0.48189 1.343064,-0.96648 -0.753941,-0.14439 -1.186499,-0.40369 -1.144,-0.83284 3.434682,-1.39798 6.746194,-0.55431 9.955787,0.80182 0.868627,0.60134 1.02597,0.80523 -0.133633,0.98939 -2.657773,0.18832 -3.791109,1.05275 -6.1472,1.41602 z"
         id="path891"
         sodipodi:nodetypes="cccccccc" />
      <path
         style="display:inline;fill:#e5b67f;fill-opacity:1;stroke:none;stroke-width:0.134705px;stroke-linecap:butt;stroke-linejoin:miter;stroke-opacity:1"
         d="m 102.52604,98.840773 c 1.26269,1.162147 1.24233,2.126397 10.48884,2.078867 0.0599,-1.032996 1.13847,-2.065997 2.17828,-3.098997 -5.47798,1.146477 -4.63966,3.332887 -12.66712,1.02013 z"
         id="path893"
         sodipodi:nodetypes="cccc" />
      <path
         style="display:inline;fill:#b79266;fill-opacity:1;stroke:none;stroke-width:0.134705px;stroke-linecap:butt;stroke-linejoin:miter;stroke-opacity:1"
         d="m 100.54167,97.517856 0.75595,0.330729 c 2.84658,-3.461049 10.52586,-2.380934 10.12803,-0.454982 -0.88445,0.828868 -0.91487,2.155875 -0.91487,2.155875 l 4.68238,-1.728835 c 0,0 -1.37771,-0.154524 -0.79398,-1.129409 -3.23748,-1.443655 -9.80637,-2.846363 -13.85751,0.826622 z"
         id="path895"
         sodipodi:nodetypes="ccccccc" />
      <path
         id="path897"
         style="display:inline;fill:#000000;fill-opacity:1;stroke:none;stroke-width:0.384848;stroke-miterlimit:4;stroke-dasharray:none;stroke-opacity:1"
         d="m 405.00195,361.30078 c -0.78048,0.003 -1.57224,0.0361 -2.36718,0.084 -0.85823,1.25974 -1.31419,2.72179 -1.31446,4.21484 7.9e-4,4.33772 3.76685,7.8537 8.41211,7.85351 4.64526,1.9e-4 8.41132,-3.51579 8.41211,-7.85351 -2.8e-4,-0.61911 -0.0789,-1.23603 -0.23437,-1.83789 -2.99983,-1.52735 -7.73821,-2.47878 -12.90821,-2.46094 z"
         sodipodi:nodetypes="scccccs"
         transform="scale(0.26458333)" />
      <path
         id="path913"
         style="display:inline;fill:#ff0000;fill-opacity:1;stroke:none;stroke-width:0.384848;stroke-miterlimit:4;stroke-dasharray:none;stroke-opacity:1"
         d="m 318.16797,366.99023 a 7.9464287,7.9464287 0 0 0 -0.0918,-0.16601 c -0.94334,-0.35871 -1.87559,-0.81229 -2.83789,-0.99414 0.92676,0.24028 1.9471,0.75391 2.92969,1.16015 z"
         transform="scale(0.26458333)" />
      <path
         id="path925"
         style="display:inline;fill:#000000;fill-opacity:1;stroke:none;stroke-width:0.384848;stroke-miterlimit:4;stroke-dasharray:none;stroke-opacity:1"
         d="m 303.57227,368.57031 a 7.9464287,7.9464287 0 0 0 -0.32227,2.23242 7.9464287,7.9464287 0 0 0 7.94727,7.94727 7.9464287,7.9464287 0 0 0 7.94531,-7.94727 7.9464287,7.9464287 0 0 0 -0.77344,-3.41601 c -1.22233,-0.35009 -2.41583,-0.7707 -3.73242,-0.88477 -2.01789,-0.17483 -4.12217,-0.0635 -6.24219,0.36133 -1.61448,0.3235 -3.22231,1.00785 -4.82226,1.70703 z"
         transform="scale(0.26458333)" />
      <path
         style="display:inline;fill:#b79266;fill-opacity:1;stroke:none;stroke-width:0.134705px;stroke-linecap:butt;stroke-linejoin:miter;stroke-opacity:1"
         d="m 84.761159,97.328867 c -1.874709,-0.761729 -4.424155,-0.427815 -6.425594,1.464659 -0.847501,1.500864 1.86784,2.000804 -1.700893,3.165554 -0.179502,-0.45995 -0.451117,-0.73567 -0.755954,-0.94495 0.267418,-0.89706 0.368707,-1.461863 0.519719,-2.12611 3.246799,-1.489628 5.147252,-3.250448 8.362722,-1.559153 z"
         id="path911"
         sodipodi:nodetypes="cccccc" />
      <path
         style="display:inline;fill:#e5b67f;fill-opacity:1;stroke:none;stroke-width:0.0509121;stroke-linecap:butt;stroke-linejoin:miter;stroke-miterlimit:4;stroke-dasharray:none;stroke-opacity:1"
         d="m 86.662142,117.66541 c 0,0 0.329716,-1.10328 0.80181,-1.26953 0.777293,-0.27373 1.518551,0.72046 2.338607,0.80181 0.670795,0.0665 1.57493,0.25219 2.004523,-0.26727 0.504692,-0.61028 -0.5259,-1.68407 -0.133632,-2.37202 0.683398,-1.19854 2.789148,-2.96205 3.674955,-1.90429 0.775095,0.92556 -2.896461,1.88356 -2.204974,2.87314 -0.09438,-0.0315 0.279843,-2.08591 5.545841,-1.73725 1.00426,0.0665 1.507298,-1.76154 1.269526,-2.73951 -0.19313,-0.79437 -0.449555,-1.73455 -1.937698,-1.5034 -4.349889,0.67567 -4.028265,-0.20352 -6.105526,-0.0493 -1.715166,0.12733 -1.386604,0.98548 -3.048456,0.88452 -2.916998,-0.17721 -2.279837,-2.63963 -3.340869,-2.53906 -0.828644,0.0785 1.055769,4.32242 -1.804069,1.57021 -0.572325,1.70304 1.151026,2.60623 0.868626,3.57473 -0.26398,0.90533 -0.834589,2.60768 1.269529,2.13816 -0.684943,0.81011 -0.701018,2.12445 0.801807,2.53906 z"
         id="path944"
         sodipodi:nodetypes="caaaaacsasssscscc" />
      <path
         style="display:inline;fill:#4b3a24;fill-opacity:1;stroke:none;stroke-width:0.134705px;stroke-linecap:butt;stroke-linejoin:miter;stroke-opacity:1"
         d="m 89.702335,113.75659 c -1.016519,-0.95512 -2.4312,-1.91827 -3.274052,-2.60588 -0.322174,-0.26283 -0.987431,0.0604 -1.169305,0.43431 -0.255728,0.52573 1.158162,1.49223 0.53454,1.67044 -0.275385,0.0787 -1.464792,0.9878 -0.53454,1.06908 2.367922,0.2069 6.613871,1.47146 4.443357,-0.56795 z"
         id="path946"
         sodipodi:nodetypes="ssasss" />
      <path
         id="path948"
         style="display:inline;fill:#4b3a24;fill-opacity:1;stroke:none;stroke-width:0.0509121;stroke-miterlimit:4;stroke-dasharray:none;stroke-opacity:1"
         d="m 96.651343,111.33447 c 0.03341,0.73777 -1.395235,1.21357 -2.405426,1.5535 -1.118755,0.37646 -2.438832,0.0195 -2.438834,-0.45102 2e-6,-0.4705 0.729429,-1.45327 2.338608,-1.88759 0.908497,-0.2452 2.484369,0.31509 2.505652,0.78511 z"
         sodipodi:nodetypes="sssss" />
      <path
         sodipodi:nodetypes="ccccccccccsccscc"
         transform="scale(0.26458333)"
         d="m 275.77148,412.14258 -0.57812,1.51758 c -0.0824,1.77237 -0.0748,3.47138 0.0723,5.04882 0.92108,9.88082 12.90129,64.78929 29.38672,85.66211 l 9.50586,-7.88086 -12.12304,-16.66796 0.73632,-9.82032 c 4.00613,1.75013 8.08846,-1.543 9.8711,-3.8164 0.90664,-4.0334 6.60504,-7.53408 11.61719,-11.11133 l 8.77846,-2.83454 c -16.70583,-0.0273 -10.26845,-12.83068 -18.97349,-3.33845 -3.63065,3.95896 -7.65455,2.2752 -12.02958,4.65736 -0.52323,0.37595 -1.15792,0.70379 -1.92188,0.97657 0,0 -9.88931,-13.29991 -13.23086,-29.76644 -2.30787,-11.37273 -9.34336,-12.37419 -9.34336,-12.37419 z"
         style="display:inline;fill:#e5b67f;fill-opacity:1;stroke:none;stroke-width:0.509121px;stroke-linecap:butt;stroke-linejoin:miter;stroke-opacity:1"
         id="path862" />
      <path
         style="display:inline;fill:#fdd7a9;fill-opacity:1;stroke:none;stroke-width:0.134705px;stroke-linecap:butt;stroke-linejoin:miter;stroke-opacity:1"
         d="m 123.9762,185.86978 c -4.33253,-4.17688 -8.374,-8.56166 -10.96132,-13.98511 -3.92295,-10.72422 1.38315,-9.12126 -2.07887,-25.4189 -0.46906,-6.47314 1.44922,-6.33092 -0.18898,-11.62276 -0.24188,-5.60665 1.92588,-7.24455 1.5119,-10.67783 -1.10557,0.0772 -1.4204,0.54971 -2.07887,0.85044 -3.7455,-0.54664 -7.0437,7.71979 -6.61459,12.94569 -0.36012,2.3949 -0.33682,2.10578 -0.47246,2.92931 -6.489178,-4.46502 -18.125496,-11.14961 -20.22173,-9.63839 -1.978696,1.3868 -3.034965,2.03863 -3.445171,7.10263 -0.232276,2.86745 -0.16809,6.07226 1.838772,6.788 -4.295426,1.69038 -6.693707,3.99056 -3.96875,7.9375 -4.758637,2.14186 -4.047591,4.28373 -3.401788,6.42559 -2.878856,0.91344 -3.082314,2.82968 -2.456844,4.53572 1.214352,3.31229 2.808231,5.08439 6.425594,8.59895 6.169264,3.2509 5.308884,8.73651 9.543899,13.22917 z"
         id="path879"
         sodipodi:nodetypes="cccccccccscccsccc" />
      <path
         sodipodi:nodetypes="ccccccsccc"
         id="path865"
         d="m 82.493301,123.69271 c 1.57538,-3.10645 5.106714,-3.31223 7.559524,-2.45685 3.398708,-1.56553 7.759,-0.57609 10.299855,0.18899 1.25487,-0.42463 2.69536,-0.29238 4.06324,-0.37798 -1.00565,-1.10015 -3.50747,-0.24743 -6.047619,-1.22842 -7.960608,-1.63744 -6.156085,-0.008 -8.646204,0.0945 -2.877148,-0.61291 -4.707182,-0.49836 -6.000371,1.22842 -0.582424,0.77771 -1.700894,0.18899 -1.700894,0.18899 -0.416763,0.38526 -0.721881,0.91087 -1.133927,1.79538 0.676254,-0.30377 1.181349,-0.008 1.606396,0.56697 z"
         style="display:inline;fill:#000000;fill-opacity:1;stroke:none;stroke-width:0.134705px;stroke-linecap:butt;stroke-linejoin:miter;stroke-opacity:1" />
      <path
         sodipodi:nodetypes="ccsssc"
         id="path878"
         d="m 99.324037,85.693291 c 0.847873,1.791767 -1.127214,3.052039 2.539063,2.605878 -0.34458,-0.301509 0.99291,-1.899717 5.98016,-2.204973 6.26545,-0.383492 7.62354,3.166019 8.0849,3.942224 0.28973,0.487463 1.56735,0.446714 1.2027,-0.334085 -3.20249,-6.857267 -10.5311,-7.03331 -17.806823,-4.009044 z"
         style="display:inline;fill:#111111;fill-opacity:1;stroke:none;stroke-width:0.134705px;stroke-linecap:butt;stroke-linejoin:miter;stroke-opacity:1" />
      <path
         sodipodi:nodetypes="ccc"
         id="path887"
         d="m 81.406621,100.39993 c 1.417411,0.015 2.834821,-0.0279 4.252232,-0.755959 -1.417411,-0.279229 -2.834821,0.315383 -4.252232,0.755959 z"
         style="display:inline;fill:#fdd7a9;fill-opacity:1;stroke:none;stroke-width:0.134705px;stroke-linecap:butt;stroke-linejoin:miter;stroke-opacity:1" />
      <path
         sodipodi:nodetypes="ccscccsccccccccc"
         transform="scale(0.26458333)"
         d="m 280.56993,304.6874 -0.40977,3.28135 c -1.80618,16.35471 0.37606,30.66301 0.15625,33.96875 -0.41314,6.21297 -5.01266,6.71483 0.50586,36.86914 -0.11182,2.56447 -0.64161,5.75826 -1.32422,9.25195 1.53037,-3.66047 3.25732,-7.16328 7.38476,-8.74609 -4.28212,-11.36121 14.96226,-29.17509 32.31055,-19.45508 0.005,0.003 0.009,0.005 0.0137,0.008 1.25147,0.54123 2.52596,1.1694 3.82813,1.91993 -0.2966,0.0273 -0.56024,0.033 -0.84571,0.0508 3.36091,2.56959 6.59043,6.28498 9.49414,11.41015 0.005,-5.98678 -0.76831,-16.63878 2.41016,-3.58203 0.41142,-0.82656 0.82719,-1.66055 1.25195,-2.50195 4.24896,-12.14348 -7.13074,-36.92729 -45.9375,-23.20508 l -4.29297,-6.06055 c 0.34679,-13.32048 -3.03583,-23.60111 -4.5453,-33.20908 z"
         style="display:inline;fill:#b79266;fill-opacity:1;stroke:none;stroke-width:0.509121px;stroke-linecap:butt;stroke-linejoin:miter;stroke-opacity:1"
         id="path898" />
      <path
         sodipodi:nodetypes="ccssssssccssscssssssccsc"
         transform="scale(0.26458333)"
         d="m 279.5332,345.66016 0.38477,0.008 c 1.34057,0.17901 2.46448,0.0929 3.47461,-0.17383 1.01013,-0.26669 1.90635,-0.714 2.78515,-1.26172 1.75761,-1.09544 3.45185,-2.58882 5.87891,-3.82031 1.21353,-0.61575 2.60948,-1.16561 4.28906,-1.56836 1.67958,-0.40275 3.64158,-0.65852 5.98633,-0.68359 2.34475,-0.0251 5.0722,0.17998 8.28125,0.69726 3.20905,0.51728 6.8994,1.34601 11.17188,2.57031 L 325,340.35742 c 0.0981,-0.61298 0.14794,-1.1928 0.0859,-1.74414 -0.062,-0.55134 -0.23644,-1.07365 -0.58789,-1.57617 -0.35146,-0.50252 -0.88011,-0.98467 -1.65039,-1.45117 -0.77029,-0.46651 -1.78111,-0.91803 -3.09961,-1.36133 -5.16484,-0.70399 -9.35692,-1.30963 -12.94141,-1.65039 -1.79225,-0.17038 -3.43252,-0.27311 -4.9668,-0.29102 -1.53428,-0.0179 -2.96234,0.0489 -4.33007,0.22461 -1.36773,0.17567 -2.67616,0.45879 -3.96875,0.86914 -1.2926,0.41036 -2.57004,0.94862 -3.87891,1.63477 -1.30887,0.68615 -2.64789,1.52038 -4.06445,2.52344 -1.41657,1.00305 -2.90972,2.17604 -4.52539,3.53711 l -0.81836,-0.23438 c -3e-4,0.20422 -0.0218,0.9435 -0.0322,1.09961 -0.0929,1.39646 -0.33503,2.50158 -0.68851,3.72266 z"
         style="display:inline;fill:#111111;fill-opacity:1;stroke:none;stroke-width:0.509121px;stroke-linecap:butt;stroke-linejoin:miter;stroke-opacity:1"
         id="path882" />
      <path
         sodipodi:nodetypes="ccc"
         id="path901"
         d="m 103.09922,79.713136 c 6.69404,-0.470387 4.89223,0.308498 8.75308,0.868625 -4.62566,-0.670767 -4.19138,-0.393947 -8.75308,-0.868625 z"
         style="display:inline;fill:#b79266;fill-opacity:1;stroke:none;stroke-width:0.0254561;stroke-linecap:butt;stroke-linejoin:miter;stroke-miterlimit:4;stroke-dasharray:none;stroke-opacity:1" />
      <path
         sodipodi:nodetypes="ccc"
         id="path903"
         d="m 104.90329,77.107258 c 2.36733,0.02647 3.41788,0.07167 7.88445,1.5368 -3.70682,-1.259941 -7.4166,-0.725442 -7.88445,-1.5368 z"
         style="display:inline;fill:#b79266;fill-opacity:1;stroke:none;stroke-width:0.0254561;stroke-linecap:butt;stroke-linejoin:miter;stroke-miterlimit:4;stroke-dasharray:none;stroke-opacity:1" />
      <path
         sodipodi:nodetypes="ccc"
         id="path905"
         d="m 99.023359,77.240894 c 0.987641,-0.219373 0.647566,0.08197 2.204971,0.133633 -1.504092,0.02368 -1.677602,0.326153 -2.204971,-0.133633 z"
         style="display:inline;fill:#b79266;fill-opacity:1;stroke:none;stroke-width:0.0254561;stroke-linecap:butt;stroke-linejoin:miter;stroke-miterlimit:4;stroke-dasharray:none;stroke-opacity:1" />
      <path
         sodipodi:nodetypes="ccc"
         id="path907"
         d="m 94.212507,79.713136 c -0.272682,-0.218518 -0.56063,-0.41261 -1.269529,0.06682 0.447043,0.0016 0.907888,0.01699 1.269529,-0.06682 z"
         style="display:inline;fill:#b79266;fill-opacity:1;stroke:none;stroke-width:0.0254561;stroke-linecap:butt;stroke-linejoin:miter;stroke-miterlimit:4;stroke-dasharray:none;stroke-opacity:1" />
      <path
         sodipodi:nodetypes="csccccccccccccccccc"
         id="path914"
         d="m 84.858073,66.817382 c 3.72504,-0.963179 4.082862,-0.217862 6.548103,-0.267271 2.745104,-0.05502 4.023573,-1.993623 10.289874,-1.469983 0,0 3.66214,2.596357 7.34992,3.608141 5.65112,1.061153 7.41761,3.628232 9.48806,6.147197 4.36492,2.661324 4.68113,8.472129 2.80634,11.49259 2.42954,4.435944 3.29938,9.146997 4.27631,14.031654 l 2.13815,4.14268 c -0.7352,-10.011786 -2.52491,-18.590848 -4.14268,-17.238889 2.7356,-3.919954 -0.29802,-7.839907 -0.53453,-11.759861 l -6.81538,-6.815373 -6.28083,-2.27179 -2.93997,-2.271791 -4.94448,-2.672694 -0.93545,-1.603618 c -3.607069,5.934064 -1.409144,-2.70427 -4.543578,1.336346 -2.874725,-4.008042 -10.082912,-1.23419 -11.132282,3.050311 -4.661968,2.357154 -6.882943,4.958408 -7.993047,7.670748 1.658208,-1.475099 2.195568,-2.629956 7.36547,-5.108397 z"
         style="display:inline;fill:#111111;fill-opacity:1;stroke:none;stroke-width:0.134705px;stroke-linecap:butt;stroke-linejoin:miter;stroke-opacity:1" />
      <path
         sodipodi:nodetypes="sscccccsccccccccccccs"
         transform="scale(0.26458333)"
         d="m 380.64062,242.89062 c -18.68755,0.27914 -25.03361,6.09633 -34.43613,6.28479 -9.31745,0.18674 -8.90294,-3.13413 -22.98183,0.50623 -19.53979,9.36734 -21.57065,13.73146 -27.83789,19.30664 1.53701,-3.75543 3.64752,-7.45424 6.55859,-11.07226 -4.24801,4.5203 -7.11424,9.17901 -9.05859,13.92968 6.26724,-5.57517 8.2981,-9.9393 27.83789,-19.30664 14.07889,-3.64036 14.92707,0.18558 24.24452,-0.001 10.3752,-0.20795 15.71244,-8.54436 39.3961,-6.56524 0,0 13.84123,9.81265 27.7793,13.63672 21.35856,4.01065 28.03405,13.71192 35.85937,23.23242 16.49734,10.05854 10.90754,35.23587 9.89314,46.65179 9.18251,16.76577 14.61263,27.42864 12.59068,45.17605 5.61419,8.25798 8.46924,13.75682 12.36775,20.29911 l -3.4629,-14.40625 -2.11914,-4.10742 c -3.69233,-18.46174 -6.97959,-36.26743 -16.1621,-53.0332 7.08582,-11.41592 5.88991,-33.377 -10.60743,-43.43555 -7.82532,-9.5205 -14.50081,-19.22372 -35.85937,-23.23438 -13.93807,-3.82406 -27.7793,-13.63672 -27.7793,-13.63672 -2.22033,-0.18554 -4.28946,-0.25348 -6.22266,-0.22461 z"
         style="display:inline;fill:#242424;fill-opacity:1;stroke:none;stroke-width:0.509121px;stroke-linecap:butt;stroke-linejoin:miter;stroke-opacity:1"
         id="path945" />
      <path
         sodipodi:nodetypes="ccccc"
         id="path953"
         d="m 82.18538,145.16076 c 2.525089,-1.18044 4.920125,-0.45659 9.621702,-2.10475 l -7.14946,-1.87088 -1.703842,3.00678 z"
         style="display:inline;fill:#4b3a24;fill-opacity:1;stroke:none;stroke-width:0.134705px;stroke-linecap:butt;stroke-linejoin:miter;stroke-opacity:1" />
      <path
         sodipodi:nodetypes="scccccccss"
         transform="scale(0.26458333)"
         d="m 303.80273,517.70312 c -1.7448,2.18887 -3.0931,5.30444 -3.83984,8.76758 -0.32031,6.25976 -0.0589,12.5465 1.93555,16.90821 0.89314,1.60708 2.03787,3.06325 3.46289,4.29687 0.54411,0.36113 1.1341,0.66568 1.78125,0.89649 -0.0683,0.0269 -0.13117,0.0551 -0.19922,0.082 3.72443,0.24817 6.92469,-0.79409 8.72852,-2.41407 -6.73734,-11.01113 0.88528,11.99453 7.83007,-13.89062 -9.14568,-4.55993 -15.93904,-9.41335 -19.69922,-14.64649 z"
         style="display:inline;fill:#b79266;fill-opacity:1;stroke:none;stroke-width:0.509121px;stroke-linecap:butt;stroke-linejoin:miter;stroke-opacity:1"
         id="path958" />
      <path
         transform="scale(0.26458333)"
         d="m 275.51953,419.9707 3.66797,18.83399 c 5.00543,21.0872 14.36007,51.94306 25.87891,66.06445 l 7.82812,-7.11719 c -4.7803,-4.33598 -5.92267,-11.24258 -9.5957,-13.88867 -3.51648,-2.37169 -0.0985,-6.98218 -2.27344,-15.15234 -2.52672,-9.90796 -8.83066,-5.48126 -13.63672,-18.94141 -8.15397,-14.52986 -3.11548,-19.52989 -11.86914,-29.79883 z"
         style="display:inline;fill:#b79266;fill-opacity:1;stroke:none;stroke-width:0.509121px;stroke-linecap:butt;stroke-linejoin:miter;stroke-opacity:1"
         id="path964" />
      <path
         sodipodi:nodetypes="ccsc"
         id="path949"
         d="m 80.381309,136.97564 c 4.27283,2.81605 4.117465,0.57195 11.024868,5.94674 -5.763939,2.37413 -6.183673,-1.70383 -7.981838,-2.55349 -1.940037,-0.91669 -3.087387,-2.87388 -3.04303,-3.39325 z"
         style="display:inline;fill:#e5b67f;fill-opacity:1;stroke:none;stroke-width:0.0254561;stroke-linecap:butt;stroke-linejoin:miter;stroke-miterlimit:4;stroke-dasharray:none;stroke-opacity:1" />
      <path
         sodipodi:nodetypes="ccc"
         id="path970"
         d="m 77.532364,153.08036 c 2.291479,-1.83275 4.778928,-1.29673 7.181548,-1.65365 -2.378378,0.45839 -4.689445,0.51291 -7.181548,1.65365 z"
         style="fill:#e5b67f;fill-opacity:1;stroke:none;stroke-width:0.0254561;stroke-linecap:butt;stroke-linejoin:miter;stroke-miterlimit:4;stroke-dasharray:none;stroke-opacity:1" />
      <path
         id="path892"
         style="display:inline;fill:#e5b67f;fill-opacity:1;stroke:none;stroke-width:0.0962117;stroke-linecap:butt;stroke-linejoin:miter;stroke-miterlimit:4;stroke-dasharray:none;stroke-opacity:1"
         d="m 270.88672,622.30078 c 4.4929,11.08783 10.58865,17.75348 23.39844,30.19922 23.3169,12.28687 20.06591,33.01987 36.07226,50 h 13.72461 c -24.13988,-15.99556 -7.55005,-25.77098 -21.84375,-28.72852 -6.69804,-1.38591 -1.19746,-5.93106 -4.15625,-6.2832 -4.50638,-0.53635 -3.69076,-3.09534 -4.46094,-5.16992 1.69454,-1.0834 4.1615,-0.94729 2.94141,-4.94531 -6.58321,2.81767 -11.82356,1.97151 -11.18555,-3.69922 -4.70699,3.03821 -7.75387,-11.80516 -2.25781,-13.28125 2.28943,-0.61486 3.4188,3.49943 6.7793,5.35937 3.077,1.70302 5.29976,6.25828 8.08984,3.10547 -14.69216,-8.92059 -11.88112,-22.19892 -25.45898,-14.9668 -0.61706,-12.67895 -12.52741,-11.05569 -17.69727,-10.32617 -1.94903,0.29102 -3.046,-0.37374 -3.94531,-1.26367 z"
         transform="scale(0.26458333)" />
      <path
         id="path889"
         style="display:inline;fill:#b79266;fill-opacity:1;stroke:none;stroke-width:0.0962117;stroke-linecap:butt;stroke-linejoin:miter;stroke-miterlimit:4;stroke-dasharray:none;stroke-opacity:1"
         d="m 271.32227,623.32422 c 4.45405,10.47768 10.55715,17.1226 22.96289,29.17578 4.2609,1.5464 12.27658,8.73764 15.30664,13.38477 0.0907,-1.09674 -3.59347,-5.7991 -5.20887,-8.33619 0.26775,-0.82013 1.06712,-2.31312 0.99402,-3.87475 -7.17674,1.41494 -4.50021,-21.74605 3.47657,-7.17578 1.68358,-0.99685 3.36719,1.36194 5.05078,2.52539 -7.28401,-10.5984 -9.93962,-10.06193 -12.24756,-8.96534 -4.39987,1.3204 -3.9809,8.02018 -4.29712,6.34942 4.52399,0.49425 1.18692,-4.18827 -4.92017,-10.66366 0.68395,-4.59265 -1.46048,-8.05556 -2.99108,-9.74039 -0.35798,3.7622 4.64742,5.96987 1.97278,8.88097 -4.99625,-1.6793 -9.97073,-5.81775 -14.89185,-5.18044 -2.28943,-0.69317 -3.77335,-4.31742 -5.20703,-6.37978 z m 38.26953,42.56055 c 7.82805,11.30546 9.68367,24.85908 20.76562,36.61523 H 333.75 c 0,0 -7.55992,-10.88007 -10.35742,-15.71484 -2.7975,-4.83478 -4.63596,-9.953 -6.60742,-13.125 -1.97147,-3.17201 -2.71535,-4.5203 -4.64258,-6.16016 -0.63743,-0.54238 -1.58002,-1.10255 -2.55078,-1.61523 z"
         transform="scale(0.26458333)"
         sodipodi:nodetypes="cccccccccccccccccsssc" />
      <path
         sodipodi:nodetypes="ccscc"
         id="path972"
         d="m 74.036086,159.60045 c 0.163654,-0.48308 0.806531,-0.56682 1.322916,-0.75596 -1.252202,-0.17095 -0.923922,0.0931 -1.252202,-0.17095 0,0 -0.710438,-0.92202 -0.472314,-2.35677 -0.605409,1.19877 -0.130493,2.89105 0.4016,3.28368 z"
         style="display:inline;fill:#e5b67f;fill-opacity:1;stroke:none;stroke-width:0.0254561;stroke-linecap:butt;stroke-linejoin:miter;stroke-miterlimit:4;stroke-dasharray:none;stroke-opacity:1" />
      <path
         id="path919"
         style="fill:#4b3a24;fill-opacity:1;stroke:none;stroke-width:0.0962117;stroke-linecap:butt;stroke-linejoin:miter;stroke-miterlimit:4;stroke-dasharray:none;stroke-opacity:1"
         d="m 457.09375,500.72266 c -7.67305,8.26688 -22.9961,16.5799 -34.84961,25.5664 l -1.57812,0.56836 -0.44336,1.07422 1.70507,-1.11328 3.14258,-2.38477 c 17.55009,-11.44735 29.6875,-18.05914 32.02344,-23.71093 z"
         transform="scale(0.26458333)" />
      <path
         id="path880"
         style="display:inline;fill:#e5b67f;fill-opacity:1;stroke:none;stroke-width:0.0962117;stroke-linecap:butt;stroke-linejoin:miter;stroke-miterlimit:4;stroke-dasharray:none;stroke-opacity:1"
         d="m 421.27734,487.74023 c -5.80341,4.75434 -6.1893,16.55969 -8.21484,25.16407 -0.76524,3.33161 1.28825,8.20567 -1.76758,10.10156 -8.46002,5.24874 -0.0277,6.71194 -2.02148,9.0918 -7.47111,8.91972 -6.59746,10.79565 3.78906,14.14257 2.30251,0.74196 4.28441,1.87217 6,3.20508 -0.72632,-20.33811 5.33056,-20.99996 -0.49023,-39.80273 -0.42244,-9.79181 1.09961,-16.36672 2.70507,-21.90235 z m -27.54101,68.31055 c -0.47011,0.0465 -1.00173,0.17228 -1.63477,0.29102 l 11.36328,42.17382 c 0,0 -6.40914,13.03787 -6.3125,20.45508 0.22564,17.31674 6.64561,22.61756 10.35352,30.55664 2.91972,6.25153 -0.5753,4.46731 -2.01953,4.04102 -19.94321,-5.8868 -2.1429,13.55105 2.01953,19.19336 6.30814,8.55084 7.70937,-7.61096 11.36523,-6.56641 5.99086,6.12393 10.05717,15.1351 18.43555,17.67774 15.05246,7.26414 14.60879,14.13217 5.05078,17.92968 L 466.28906,702.5 h 2.05664 l -0.13086,-0.34961 c -16.2385,-15.68241 -31.36517,-32.16014 -41.07226,-52.50781 -10.89094,-29.7727 -2.97319,-34.4342 -3.18164,-59.20899 h -0.0391 c 0,0 -10.0683,14.78395 -20.70899,-3.53515 -5.5581,-9.5689 -6.33474,-25.71728 -5.80859,-26.76953 -1.39938,-3.64176 -2.25764,-4.21757 -3.66797,-4.07813 z"
         transform="scale(0.26458333)" />
      <path
         id="path883"
         style="display:inline;fill:#b79266;fill-opacity:1;stroke:none;stroke-width:0.0962117;stroke-linecap:butt;stroke-linejoin:miter;stroke-miterlimit:4;stroke-dasharray:none;stroke-opacity:1"
         d="m 405.99023,598.76758 1.76954,10.10156 c 4.93077,18.55778 11.32402,37.96212 18.18164,50.00195 3.59928,3.74798 5.8433,3.49485 8.50586,3.88868 -2.66971,-4.20443 -5.13018,-8.55906 -7.30469,-13.11719 -7.57544,-20.70908 -6.04599,-29.27836 -4.48242,-40.90039 -5.67732,7.47137 -12.47119,1.89965 -16.66993,-9.97461 z"
         transform="scale(0.26458333)" />
      <path
         style="display:inline;fill:#343c56;fill-opacity:1;stroke:none;stroke-width:0.134705px;stroke-linecap:butt;stroke-linejoin:miter;stroke-opacity:1"
         d="m 56.460688,159.22582 c 3.495384,5.46928 7.624381,8.61531 11.626223,12.22758 -4.444826,-4.58201 -8.758336,-9.04729 -11.626223,-12.22758 z"
         id="path932"
         sodipodi:nodetypes="ccc" />
      <path
         id="path934"
         style="display:inline;fill:#343c56;fill-opacity:1;stroke:none;stroke-width:0.509121px;stroke-linecap:butt;stroke-linejoin:miter;stroke-opacity:1"
         d="m 217.67188,558.77539 c 13.27472,4.3742 18.34995,9.73245 14.78906,16.12695 l -1.13672,7.45118 c -0.2213,7.49918 6.01162,14.80936 15.40625,16.66601 -1.98145,-6.70628 -0.9065,-10.76247 -0.50586,-15.4043 1.27648,5.3737 2.93654,11.88009 5.55664,15.91016 3.81849,0.56693 7.27688,0.4512 10.8457,-1.87891 -2.62144,-8.37902 -5.05652,-17.52197 -7.26953,-27.64648 -20.96922,12.29296 -15.93609,-6.43549 -33.48828,-11.21094 z"
         transform="scale(0.26458333)" />
      <path
         style="display:inline;fill:#252b3e;fill-opacity:1;stroke:none;stroke-width:0.134705px;stroke-linecap:butt;stroke-linejoin:miter;stroke-opacity:1"
         d="m 28.597838,168.51344 c 6.897553,4.65163 10.563737,10.49376 10.690781,17.63978 -1.570798,-5.87993 -4.50553,-11.75985 -10.690781,-17.63978 z"
         id="path940"
         sodipodi:nodetypes="ccc" />
      <path
         id="path942"
         style="display:inline;fill:#343c56;fill-opacity:1;stroke:none;stroke-width:0.509121px;stroke-linecap:butt;stroke-linejoin:miter;stroke-opacity:1"
         d="m 107.43945,664.25 c -1.20612,0.0754 4.87778,11.60768 20.01172,38.54883 l 10.13477,-0.0137 C 120.0965,679.48945 108.83411,664.16284 107.43945,664.25 Z"
         transform="scale(0.26458333)" />
      <path
         id="path947"
         style="display:inline;fill:#343c56;fill-opacity:1;stroke:none;stroke-width:0.509121px;stroke-linecap:butt;stroke-linejoin:miter;stroke-opacity:1"
         d="m 132.47656,637.48242 c -0.23933,-0.0157 -0.47082,-0.01 -0.6914,0.0176 -5.38777,0.66527 20.89359,2.71008 26.00586,65.25391 l 3.57226,-0.004 c -6.70769,-45.28025 -21.78349,-64.80098 -28.88672,-65.26758 z"
         transform="scale(0.26458333)" />
      <path
         id="path952"
         style="display:inline;fill:#343c56;fill-opacity:1;stroke:none;stroke-width:0.509121px;stroke-linecap:butt;stroke-linejoin:miter;stroke-opacity:1"
         d="m 558.53125,593.76953 c -15.52099,12.59377 -4.28429,59.5607 -20.31641,40.87305 -36.31536,-42.3306 -37.40017,14.90458 -44.98632,-8.8457 -6.82933,-21.38076 -29.51252,-5.9688 -44.48047,-23.94922 -0.6021,-0.0317 -1.1971,-0.0456 -1.77539,-0.0332 -1.0884,9.86229 -3.67469,21.56505 -8.40625,31.67969 0.12148,0.74227 0.23712,1.50435 0.36132,2.2207 1.22786,7.0817 5.03926,13.76705 9.64454,19.28516 4.95817,5.94093 11.0241,12.21508 18.57031,13.92773 8.81329,2.00021 17.55062,-5.2577 26.58789,-5.31054 16.05558,-0.0937 31.67108,12.37842 47.3418,8.88281 9.73867,-2.17236 18.91924,-9.08764 24.28515,-17.5 3.06365,-4.80299 3.54703,-11.09795 3.21485,-16.78516 -0.27667,-4.73593 -4.43527,-8.83058 -4.28711,-13.57226 0.22715,-7.27007 9.27629,-13.22357 7.85742,-20.35742 -0.67348,-3.38608 -4.3254,-5.50441 -7.14258,-7.5 -1.94031,-1.37446 -4.17128,-2.37377 -6.46875,-3.01563 z"
         transform="scale(0.26458333)" />
      <path
         id="path950"
         style="display:inline;fill:#252b3e;fill-opacity:1;stroke:none;stroke-width:0.509121px;stroke-linecap:butt;stroke-linejoin:miter;stroke-opacity:1"
         d="m 447.7168,600.51562 c -0.21056,0.067 -0.42045,0.13559 -0.62696,0.21094 -1.03357,10.27252 -3.72584,22.74058 -8.8164,33.36133 0.17902,0.55469 0.39233,1.09886 0.65429,1.62695 5.10732,10.2957 15.48388,18.63892 26.42969,22.14258 10.77143,3.44784 22.79778,-5.1459 33.82617,-2.63867 8.89191,2.02148 14.59737,14.58667 23.67383,13.70898 9.90973,-0.95826 18.45538,-10.54521 22.5,-19.64257 1.65776,-3.72871 1.55228,-7.86561 1.02735,-12.05469 -1.40738,2.72458 -3.75401,2.55947 -8.16993,-2.58789 -36.31536,-42.3306 -37.40017,14.90458 -44.98632,-8.8457 -6.98876,-21.8799 -30.57627,-5.24594 -45.51172,-25.28126 z"
         transform="scale(0.26458333)" />
      <path
         id="path954"
         style="display:inline;fill:#343c56;fill-opacity:1;stroke:none;stroke-width:0.509121px;stroke-linecap:butt;stroke-linejoin:miter;stroke-opacity:1"
         d="m 605.52344,616.97852 c -4.97767,0.2027 -12.26084,5.78786 -14.27344,9.80664 -5.97698,11.93495 -10.24102,26.53898 -14.82227,40 -4.00375,11.76419 -10.71641,34.39939 -11.16015,35.89648 l 2.70117,0.004 c 17.71216,-36.5791 31.96574,-58.6482 53.10352,-75.90039 -23.79727,16.4121 -38.78852,44.15758 -54.28711,74.28711 9.3496,-31.34684 26.98834,-83.59797 43.57226,-77.14454 0.30916,-5.25551 -1.84738,-7.07084 -4.83398,-6.94921 z"
         transform="scale(0.26458333)" />
      <path
         id="path956"
         style="display:inline;fill:#252b3e;fill-opacity:1;stroke:none;stroke-width:0.509121px;stroke-linecap:butt;stroke-linejoin:miter;stroke-opacity:1"
         d="m 630.35742,698.75 -9.64258,0.89258 -6.26172,3.13086 10.72461,0.0195 z"
         transform="scale(0.26458333)" />
      <path
         style="display:inline;fill:#252b3e;fill-opacity:1;stroke:none;stroke-width:0.134705px;stroke-linecap:butt;stroke-linejoin:miter;stroke-opacity:1"
         d="m 152.87817,176.8322 c -0.30805,-1.00711 0.58713,-3.97167 1.80406,-4.64381 -0.54543,1.47292 -1.41402,3.18244 -1.80406,4.64381 z"
         id="path959"
         sodipodi:nodetypes="ccc" />
      <path
         id="path926"
         style="display:inline;fill:#252b3e;fill-opacity:1;stroke:none;stroke-width:0.0962117;stroke-linecap:butt;stroke-linejoin:miter;stroke-miterlimit:4;stroke-dasharray:none;stroke-opacity:1"
         d="m 217.67188,558.77539 c 6.50823,2.28771 13.00777,4.83446 15.15039,8.98438 -2.13521,-0.0175 -4.50054,-0.32163 -6.57227,-0.25977 -18.04181,1.67097 -18.05845,4.84853 -25.89258,0 -6.54475,-2.77243 -13.73289,2.16869 -20.71484,4.64258 -8.34953,4.63903 -9.63099,-2.27207 -17.85742,4.64258 -6.45229,2.80459 -12.32343,6.68671 -21.96289,3.57226 -3.58224,4.28587 -7.75851,2.05189 -11.78711,1.42774 -1.42857,7.67856 -9.03592,7.76202 -10,13.75 -3.85567,1.04315 -6.26153,2.70852 -6.78516,5.17968 -4.38461,4.54753 -8.24352,6.54439 -11.785156,9.64258 -0.515025,4.16296 -2.636825,9.36042 -11.072266,9.46485 3.116969,2.45087 10.01231,2.4421 13.572262,-9.46485 4.55747,-0.44542 7.69784,-10.03897 18.57032,-15.53515 0.32617,-1.95549 1.06188,-3.87037 6.07226,-5.35743 6.32757,-7.68155 6.84214,-2.67091 9.82031,-3.03711 3.73345,-2.56561 7.413,-5.24988 13.92969,-1.78515 0.79663,-2.4466 8.02032,-3.82222 14.28516,-5.35742 -0.95367,-5.96542 8.86491,-2.59382 14.28515,-3.03516 7.72434,-4.96498 16.54645,-12.72074 19.28711,-5 12.56407,2.20524 13.21645,-1.37769 28.21289,-1.07227 3.09382,-0.0959 5.37715,-0.0403 7.11329,0.11524 0.0966,1.3744 -0.22574,2.89885 -1.08008,4.60937 10.98223,-1.04821 5.18884,9.02425 13.76367,8.71289 8.75629,-0.37499 10.47175,-4.39111 10.07227,-9.50195 -0.31437,-1.36475 -0.63327,-2.71246 -0.93946,-4.11328 -20.96922,12.29296 -15.93609,-6.43549 -33.48828,-11.21094 z"
         transform="scale(0.26458333)" />
      <path
         id="path984"
         style="fill:#343c56;fill-opacity:1;stroke:none;stroke-width:0.509121px;stroke-linecap:butt;stroke-linejoin:miter;stroke-opacity:1"
         d="m 266.45703,608.97656 c -5.67007,22.97508 3.02196,39.75412 15.62891,54.94532 0,0 0.31231,10.93035 1.26172,15.6582 0.94942,4.72781 7.63551,9.93378 6.5664,14.39453 -0.98526,4.11091 -10.71554,7.995 -12.29492,8.60351 L 330.35742,702.5 c -24.75219,-28.18053 -47.48087,-48.53976 -63.90039,-93.52344 z"
         transform="scale(0.26458333)" />
      <path
         id="path981"
         style="fill:#252b3e;fill-opacity:1;stroke:none;stroke-width:0.509121px;stroke-linecap:butt;stroke-linejoin:miter;stroke-opacity:1"
         d="m 284.92188,647.14258 c -4.17388,18.76215 -1.77266,29.03238 9.0332,43.04492 2.40086,3.45098 2.13513,7.28131 -6.97656,12.37695 L 330.35742,702.5 C 313.89938,683.76241 298.3328,668.49413 284.92188,647.14258 Z"
         transform="scale(0.26458333)" />
      <path
         style="fill:#252b3e;fill-opacity:1;stroke:none;stroke-width:0.0254561;stroke-linecap:butt;stroke-linejoin:miter;stroke-miterlimit:4;stroke-dasharray:none;stroke-opacity:1"
         d="m 79.648628,171.51697 c -0.3947,-0.39783 -0.802574,-1.37034 -1.591104,0.42272 -0.03943,-0.29046 0.891898,-1.7615 1.856065,-1.68902 -0.126047,0.18008 -0.209424,1.02959 -0.239811,1.34747 z"
         id="path909"
         sodipodi:nodetypes="ccccc" />
      <path
         id="path1015"
         style="fill:#55ffdd;fill-opacity:1;stroke:none;stroke-width:1.92423;stroke-miterlimit:4;stroke-dasharray:none;stroke-opacity:1"
         d="M 88,131.42773 V 288.9375 a 150.71429,150.71429 0 0 0 34.14258,3.91992 150.71429,150.71429 0 0 0 150.71484,-150.71484 150.71429,150.71429 0 0 0 -0.38086,-10.71485 z"
         transform="scale(0.26458333)" />
    </g>
  </g>
</svg>
